<?xml version="1.0" encoding="utf-8"?>
<!-- Generator: Adobe Illustrator 26.0.1, SVG Export Plug-In . SVG Version: 6.00 Build 0)  -->
<svg version="1.1" id="Layer_1" xmlns="http://www.w3.org/2000/svg" xmlns:xlink="http://www.w3.org/1999/xlink" x="0px" y="0px"
	 viewBox="0 0 1278.15 944.89" style="enable-background:new 0 0 1278.15 944.89;" xml:space="preserve">
<style type="text/css">
	.st0{display:none;}
	.st1{fill:#2E3192;}
	.st2{fill:none;}
	.st3{fill:#1A1A1A;}
	.st4{fill:#F7931E;}
	.st5{fill:#00AEEF;}
	.st6{fill:#090E21;}
	.st7{fill:url(#SVGID_1_);}
	.st8{fill:url(#SVGID_00000083778996022752078090000018067475062709788806_);}
	.st9{fill:url(#SVGID_00000021840270398189392050000016295726966273609638_);}
	.st10{fill:url(#SVGID_00000075864396584361993560000016732205617872147637_);}
	.st11{fill:url(#SVGID_00000173150639817843331550000006546204010028675731_);}
	.st12{fill:url(#SVGID_00000102537767067308941140000018274887939925258906_);}
	.st13{fill:url(#SVGID_00000116200932076887716450000010978926226031795857_);}
	.st14{fill:url(#SVGID_00000087378823191004260070000013195408237246716851_);}
	.st15{fill:url(#SVGID_00000122694039568852527300000003312028052565316265_);}
	.st16{fill:url(#SVGID_00000033362279340191802140000011359554216978285739_);}
	.st17{fill:url(#SVGID_00000039813603518033004690000004610615324108047252_);}
	.st18{fill:url(#SVGID_00000044898339477569658510000012458801430174623111_);}
	.st19{fill:url(#SVGID_00000098919029286272691340000001293979550039002243_);}
	.st20{fill:url(#SVGID_00000163055807949716328500000015069818919336928419_);}
	.st21{fill:url(#SVGID_00000049912941786540922140000011334307578163498672_);}
	.st22{fill:url(#SVGID_00000064352911439090310930000008737273513208566407_);}
	.st23{fill:url(#SVGID_00000169524216894037780310000017264064043651608237_);}
	.st24{fill:url(#SVGID_00000035492750268658821460000007995622937522853533_);}
	.st25{fill:url(#SVGID_00000110457537953421274580000017663669784571920778_);}
	.st26{fill:url(#SVGID_00000178892897777385242430000001946102050374052016_);}
	.st27{fill:url(#SVGID_00000181792270170598643160000013095919822203769230_);}
	.st28{fill:url(#SVGID_00000054950474008585620280000011813182813438591165_);}
	.st29{fill:url(#SVGID_00000114784033745373792420000015730804657257558429_);}
	.st30{fill:url(#SVGID_00000085965554916333226830000005748366641709352842_);}
	.st31{fill:url(#SVGID_00000100378994238909881350000007331167872843207088_);}
	.st32{fill:url(#SVGID_00000133498234275294171900000008523101331353997465_);}
	.st33{fill:url(#SVGID_00000023279581957945259130000007638621834903418274_);}
	.st34{fill:url(#SVGID_00000123415978231268847240000016358806606961501322_);}
	.st35{fill:url(#SVGID_00000126319764610788810540000014533232624869314225_);}
	.st36{fill:url(#SVGID_00000023966506386117596400000006477980898749042327_);}
	.st37{fill:url(#SVGID_00000080901631198308675040000014905216571274619547_);}
	.st38{fill:url(#SVGID_00000152969834040543488760000001158877776883353478_);}
	.st39{fill:url(#SVGID_00000138572892302850410360000000662380232680161421_);}
	.st40{fill:url(#SVGID_00000180348288474948855620000002371280510864063634_);}
	.st41{fill:url(#SVGID_00000052062260682907030940000010384460679399344056_);}
	.st42{fill:url(#SVGID_00000003105651803453736890000003308573108114103478_);}
	.st43{fill:url(#SVGID_00000085972758643171769730000002342165254925133722_);}
	.st44{fill:url(#SVGID_00000099643140761547079300000000246272006434237838_);}
	.st45{fill:url(#SVGID_00000064323060286561210440000011051714599604180642_);}
	.st46{fill:url(#SVGID_00000160166930937812578720000007623004363021980847_);}
	.st47{fill:url(#SVGID_00000030450008423466897510000002256221877666024084_);}
	.st48{fill:url(#SVGID_00000131368574560239220890000003816608140901493895_);}
	.st49{fill:url(#SVGID_00000051373530568069260550000008151402317821066395_);}
	.st50{fill:url(#SVGID_00000178179497239326060620000014192329905944394897_);}
	.st51{fill:url(#SVGID_00000016766760614151749860000004786603054019481262_);}
	.st52{fill:url(#SVGID_00000062160071397999962050000017833727619137645247_);}
	.st53{fill:url(#SVGID_00000067928673950645607200000009591529969528767618_);}
	.st54{fill:url(#SVGID_00000044868709154805916650000002598331084891986072_);}
	.st55{fill:url(#SVGID_00000058548880722998608470000001370508966489112245_);}
	.st56{fill:url(#SVGID_00000131343205329968914190000013497358694907503005_);}
	.st57{fill:url(#SVGID_00000033362932485107701900000013315329115146133376_);}
	.st58{fill:url(#SVGID_00000013884894280535011120000003655946483951984799_);}
	.st59{fill:url(#SVGID_00000043427090768251340380000004860225519452730798_);}
	.st60{fill:url(#SVGID_00000163755238227089578270000010951154344544815756_);}
	.st61{fill:url(#SVGID_00000043439047117894254970000000031471111210546085_);}
	.st62{fill:url(#SVGID_00000039092057408670323750000017908896214911795900_);}
	.st63{fill:url(#SVGID_00000177470754031295289310000015595642170214839436_);}
	.st64{fill:url(#SVGID_00000174586658849362456470000017413873386693918382_);}
	.st65{fill:url(#SVGID_00000034080585110131292370000016486956347043137958_);}
	.st66{fill:url(#SVGID_00000165235564592222851220000008074434194378569391_);}
	.st67{fill:url(#SVGID_00000004547562007103816430000009807412972608288910_);}
	.st68{fill:url(#SVGID_00000118361778765556241790000007572337650555080123_);}
	.st69{fill:url(#SVGID_00000170253703485657300320000005836113971506522011_);}
	.st70{display:inline;}
	.st71{fill:#FFFFFF;}
	.st72{fill:#23A9E1;}
	.st73{fill:#BE1E2D;}
	.st74{fill:#231F20;}
</style>
<path class="st0" d="M1382.28,1246.52H-105.23c-6.6,0-12-5.4-12-12v-1476c0-6.6,5.4-12,12-12h1487.51c6.6,0,12,5.4,12,12v1476
	C1394.28,1241.12,1388.88,1246.52,1382.28,1246.52z"/>
<g class="st0">
	<g class="st70">
		<g>
			<path class="st71" d="M127.75,703.14c0-10.22-0.67-18.88-2.02-25.97s-2.73-12.62-4.14-16.59c-1.41-3.97-2.12-7.32-2.12-10.07
				c0-5.95,2.21-10.26,6.64-12.93c4.43-2.67,9.4-4,14.92-4h31.57c12.83,0,23.3,3.82,31.38,11.44c8.09,7.63,12.13,16.48,12.13,26.55
				c0,11.29-3.85,20.9-11.55,28.83c14.12,6.71,21.18,21.44,21.18,44.17c0,13.27-4.01,24.83-12.03,34.67
				c-8.02,9.84-18.45,14.76-31.29,14.76h-41.39c-5.52,0-10.49-1.37-14.92-4.12s-6.64-7.09-6.64-13.04c0-2.59,0.7-5.87,2.12-9.84
				c1.41-3.96,2.79-9.46,4.14-16.48c1.35-7.02,2.02-15.71,2.02-26.09V703.14z M163.94,655.77c-3.21,0-4.81,1.53-4.81,4.58
				c0,2.6,0.03,7.78,0.1,15.56c0.06,7.78,0.1,12.89,0.1,15.33c0,2.9,1.6,4.35,4.81,4.35c5.13-0.3,9.15-2.13,12.03-5.49
				c2.89-3.35,4.33-8.01,4.33-13.96c0-6.1-1.48-10.98-4.43-14.65C173.12,657.83,169.07,655.92,163.94,655.77z M159.13,759.21
				c0,3.82,1.6,5.72,4.81,5.72h6.74c5.52,0,10.14-2.44,13.86-7.32c3.72-4.88,5.58-11.21,5.58-18.99c0-7.93-1.86-14.19-5.58-18.76
				c-3.72-4.58-8.34-6.87-13.86-6.87h-6.55c-3.21,0-4.81,1.91-4.81,5.72c0,3.36-0.03,10.15-0.1,20.37
				C159.16,749.29,159.13,756,159.13,759.21z"/>
			<path class="st71" d="M260.78,793.99c-7.19,0-12.58-1.64-16.17-4.92c-3.59-3.28-5.39-7.28-5.39-12.01c0-2.75,0.67-6.1,2.02-10.07
				c1.35-3.96,2.7-9.46,4.04-16.48c1.35-7.02,2.02-15.71,2.02-26.09v-22.66c0-5.95-0.38-11.02-1.15-15.22
				c-0.77-4.19-1.54-7.09-2.31-8.7s-1.96-3.47-3.56-5.61c-1.61-2.13-2.67-3.66-3.18-4.58c-1.03-1.68-1.61-3.93-1.73-6.75
				c-0.13-2.82,0.32-5.8,1.35-8.92c1.03-3.12,2.5-6.06,4.43-8.81s4.59-5.04,7.99-6.87c3.4-1.83,7.28-2.75,11.65-2.75
				c6.8,0,11.58,2.02,14.34,6.06c2.76,4.04,4.14,8.2,4.14,12.47c0,4.88-1.03,11.94-3.08,21.17c-2.05,9.23-3.08,18.73-3.08,28.49
				v22.66c0,10.22,0.77,18.88,2.31,25.97c1.54,7.09,3.08,12.63,4.62,16.59c1.54,3.97,2.31,7.32,2.31,10.07
				c0,4.43-2.09,8.35-6.26,11.79C271.91,792.27,266.81,793.99,260.78,793.99z"/>
			<path class="st71" d="M291.97,735.63c0-19.53,4.68-34.56,14.05-45.08c9.37-10.53,21.11-15.79,35.23-15.79
				c10.14,0,19.22,2.83,27.24,8.47c8.02,5.65,14.02,13.88,18,24.71c1.67,4.73,2.63,8.89,2.89,12.47c0.26,3.59-0.39,6.56-1.93,8.92
				c-1.54,2.37-3.5,4.31-5.87,5.83c-2.38,1.53-5.81,2.67-10.3,3.43c-4.49,0.77-9.08,1.3-13.77,1.6c-4.69,0.31-10.49,0.46-17.42,0.46
				h-9.82c1.41,18.31,9.56,27.46,24.45,27.46c5.01,0,10.27-1.83,15.79-5.49c5.52-3.66,9.05-8.77,10.59-15.33
				c0.51-2.13,1.41-3.2,2.7-3.2c1.67,0,3.05,1.45,4.14,4.35c1.09,2.9,1.31,6.64,0.67,11.21c-1.41,9.77-5.87,18.27-13.38,25.52
				c-7.51,7.25-17.62,10.87-30.32,10.87c-6.93,0-13.45-1.18-19.54-3.55c-6.1-2.36-11.71-5.87-16.85-10.53
				c-5.13-4.65-9.18-10.95-12.13-18.88C293.44,755.16,291.97,746.01,291.97,735.63z M330.28,728.31c8.98-0.15,14.85-1.07,17.62-2.75
				c2.76-1.68,3.75-5.03,2.98-10.07c-2.31-15.71-5.58-23.57-9.82-23.57c-2.7,0-5.1,3.4-7.22,10.18
				C331.73,708.9,330.54,717.63,330.28,728.31z"/>
			<path class="st71" d="M412.49,752.11c4.49,0,9.34,3.36,14.54,10.07c5.2,6.71,10.04,10.07,14.54,10.07c2.82,0,5.26-0.88,7.32-2.63
				c2.05-1.75,3.08-4.23,3.08-7.44c0-3.05-1.64-5.76-4.91-8.12c-3.27-2.36-7.22-4.54-11.84-6.52c-4.62-1.98-9.24-4.27-13.86-6.87
				c-4.62-2.59-8.57-6.37-11.84-11.33c-3.27-4.96-4.91-10.87-4.91-17.74c0-24.56,14.05-36.84,42.16-36.84
				c12.58,0,22.3,2.83,29.17,8.47c6.86,5.65,10.3,12.89,10.3,21.74c0,4.12-0.87,7.93-2.6,11.44c-1.73,3.51-4.4,5.26-7.99,5.26
				c-1.54,0-3.08-0.42-4.62-1.26c-1.54-0.84-3.15-2.17-4.81-4c-1.67-1.83-3.05-3.39-4.14-4.69c-1.09-1.29-2.47-3.17-4.14-5.61
				c-1.67-2.44-2.76-3.97-3.27-4.58c-2.57-3.05-5.91-4.58-10.01-4.58c-2.44,0-4.46,0.69-6.06,2.06c-1.61,1.37-2.41,3.36-2.41,5.95
				c0,4.27,1.73,8.05,5.2,11.33c3.47,3.28,7.64,6.1,12.51,8.47c4.88,2.37,9.75,5,14.63,7.9c4.88,2.9,9.05,6.83,12.51,11.79
				c3.47,4.96,5.2,10.87,5.2,17.74c0,4.58-0.58,8.7-1.73,12.36c-1.15,3.66-2.57,6.68-4.24,9.04c-1.67,2.37-3.95,4.35-6.83,5.95
				c-2.89,1.6-5.46,2.83-7.7,3.66c-2.25,0.84-5.14,1.45-8.66,1.83c-3.53,0.38-6.19,0.61-7.99,0.69c-1.8,0.07-4.3,0.11-7.51,0.11
				c-10.78,0-20.06-2.17-27.82-6.52c-7.77-4.35-11.65-11.17-11.65-20.48c0-4.88,1.06-8.89,3.18-12.01
				C407.39,753.68,409.79,752.11,412.49,752.11z"/>
			<path class="st71" d="M504.32,752.11c4.49,0,9.34,3.36,14.54,10.07c5.2,6.71,10.04,10.07,14.54,10.07c2.82,0,5.26-0.88,7.32-2.63
				c2.05-1.75,3.08-4.23,3.08-7.44c0-3.05-1.64-5.76-4.91-8.12c-3.27-2.36-7.22-4.54-11.84-6.52c-4.62-1.98-9.24-4.27-13.86-6.87
				c-4.62-2.59-8.57-6.37-11.84-11.33c-3.27-4.96-4.91-10.87-4.91-17.74c0-24.56,14.05-36.84,42.16-36.84
				c12.58,0,22.3,2.83,29.17,8.47c6.87,5.65,10.3,12.89,10.3,21.74c0,4.12-0.87,7.93-2.6,11.44c-1.73,3.51-4.4,5.26-7.99,5.26
				c-1.54,0-3.08-0.42-4.62-1.26c-1.54-0.84-3.15-2.17-4.81-4c-1.67-1.83-3.05-3.39-4.14-4.69c-1.09-1.29-2.47-3.17-4.14-5.61
				c-1.67-2.44-2.76-3.97-3.27-4.58c-2.57-3.05-5.9-4.58-10.01-4.58c-2.44,0-4.46,0.69-6.06,2.06c-1.61,1.37-2.41,3.36-2.41,5.95
				c0,4.27,1.73,8.05,5.2,11.33c3.47,3.28,7.64,6.1,12.51,8.47c4.88,2.37,9.75,5,14.63,7.9c4.88,2.9,9.05,6.83,12.51,11.79
				c3.46,4.96,5.2,10.87,5.2,17.74c0,4.58-0.58,8.7-1.73,12.36c-1.16,3.66-2.57,6.68-4.24,9.04c-1.67,2.37-3.95,4.35-6.83,5.95
				c-2.89,1.6-5.46,2.83-7.7,3.66c-2.25,0.84-5.13,1.45-8.66,1.83c-3.53,0.38-6.19,0.61-7.99,0.69c-1.8,0.07-4.3,0.11-7.51,0.11
				c-10.78,0-20.06-2.17-27.82-6.52c-7.77-4.35-11.65-11.17-11.65-20.48c0-4.88,1.06-8.89,3.18-12.01
				C499.22,753.68,501.63,752.11,504.32,752.11z"/>
			<path class="st71" d="M644.09,703.14c0-10.22-0.67-18.88-2.02-25.97s-2.73-12.62-4.14-16.59c-1.41-3.97-2.12-7.32-2.12-10.07
				c0-5.95,2.21-10.26,6.64-12.93c4.43-2.67,9.4-4,14.92-4h31.57c12.83,0,23.3,3.82,31.38,11.44c8.09,7.63,12.13,16.48,12.13,26.55
				c0,11.29-3.85,20.9-11.55,28.83c14.12,6.71,21.18,21.44,21.18,44.17c0,13.27-4.01,24.83-12.03,34.67
				c-8.02,9.84-18.45,14.76-31.29,14.76h-41.39c-5.52,0-10.49-1.37-14.92-4.12c-4.43-2.75-6.64-7.09-6.64-13.04
				c0-2.59,0.7-5.87,2.12-9.84c1.41-3.96,2.79-9.46,4.14-16.48c1.35-7.02,2.02-15.71,2.02-26.09V703.14z M680.29,655.77
				c-3.21,0-4.81,1.53-4.81,4.58c0,2.6,0.03,7.78,0.1,15.56c0.06,7.78,0.1,12.89,0.1,15.33c0,2.9,1.6,4.35,4.81,4.35
				c5.13-0.3,9.15-2.13,12.03-5.49c2.89-3.35,4.33-8.01,4.33-13.96c0-6.1-1.48-10.98-4.43-14.65
				C689.46,657.83,685.42,655.92,680.29,655.77z M675.47,759.21c0,3.82,1.6,5.72,4.81,5.72h6.74c5.52,0,10.14-2.44,13.86-7.32
				c3.72-4.88,5.58-11.21,5.58-18.99c0-7.93-1.86-14.19-5.58-18.76c-3.72-4.58-8.34-6.87-13.86-6.87h-6.55
				c-3.21,0-4.81,1.91-4.81,5.72c0,3.36-0.03,10.15-0.1,20.37C675.5,749.29,675.47,756,675.47,759.21z"/>
			<path class="st71" d="M751.71,735.63c0-19.53,4.68-34.56,14.05-45.08c9.37-10.53,21.11-15.79,35.23-15.79
				c10.14,0,19.22,2.83,27.24,8.47c8.02,5.65,14.02,13.88,18,24.71c1.67,4.73,2.63,8.89,2.89,12.47c0.26,3.59-0.39,6.56-1.93,8.92
				c-1.54,2.37-3.5,4.31-5.87,5.83c-2.38,1.53-5.81,2.67-10.3,3.43c-4.49,0.77-9.08,1.3-13.77,1.6c-4.69,0.31-10.49,0.46-17.42,0.46
				h-9.82c1.41,18.31,9.56,27.46,24.45,27.46c5.01,0,10.27-1.83,15.79-5.49c5.52-3.66,9.05-8.77,10.59-15.33
				c0.51-2.13,1.41-3.2,2.7-3.2c1.67,0,3.05,1.45,4.14,4.35c1.09,2.9,1.31,6.64,0.67,11.21c-1.41,9.77-5.87,18.27-13.38,25.52
				c-7.51,7.25-17.62,10.87-30.32,10.87c-6.93,0-13.45-1.18-19.54-3.55c-6.1-2.36-11.71-5.87-16.85-10.53
				c-5.14-4.65-9.18-10.95-12.13-18.88C753.19,755.16,751.71,746.01,751.71,735.63z M790.03,728.31c8.98-0.15,14.86-1.07,17.62-2.75
				c2.76-1.68,3.75-5.03,2.98-10.07c-2.31-15.71-5.58-23.57-9.82-23.57c-2.7,0-5.1,3.4-7.22,10.18
				C791.47,708.9,790.28,717.63,790.03,728.31z"/>
			<path class="st71" d="M860.3,708.86c-1.03-1.98-1.61-4.38-1.73-7.21c-0.13-2.82,0.32-5.72,1.35-8.7c1.03-2.97,2.5-5.8,4.43-8.47
				c1.93-2.67,4.59-4.88,7.99-6.64c3.4-1.75,7.28-2.78,11.65-3.09c0.51,0,1.22-0.04,2.12-0.11c0.9-0.08,1.54-0.11,1.93-0.11
				c7.06,0,11.74,1.41,14.05,4.23c2.31,2.83,3.47,6.68,3.47,11.56c0,3.2-1.16,7.4-3.47,12.59c-2.31,5.19-3.85,10.76-4.62,16.71
				c3.72-10.37,9.43-20.44,17.13-30.21c7.7-9.76,14.95-14.65,21.76-14.65c5.78,0,9.72,3.24,11.84,9.73
				c2.12,6.49,2.63,13.77,1.54,21.85c-1.09,8.09-3.18,14.95-6.26,20.6c-4.37,8.24-9.43,12.36-15.21,12.36
				c-2.44,0-4.14-0.92-5.1-2.75c-0.96-1.83-0.8-4.35,0.48-7.55c1.67-3.81,2.02-8.01,1.06-12.59c-0.96-4.58-2.98-6.87-6.06-6.87
				c-4.24,0-9.02,4.46-14.34,13.39c-5.33,8.93-7.54,17.89-6.64,26.89c0.9,3.97,2.79,8.7,5.68,14.19s4.33,9.84,4.33,13.04
				c0,4.58-2.12,8.55-6.35,11.9c-4.24,3.36-10.01,5.03-17.33,5.03c-14.38,0-21.56-5.64-21.56-16.93c0-2.9,1.35-8.12,4.04-15.68
				s4.04-15.6,4.04-24.14c0-5.95-0.35-10.72-1.06-14.3c-0.71-3.58-1.51-5.87-2.41-6.87c-0.9-0.99-2.05-2.13-3.46-3.43
				C862.16,711.34,861.07,710.08,860.3,708.86z"/>
			<path class="st71" d="M959.45,708.86c-1.03-1.98-1.61-4.38-1.73-7.21c-0.13-2.82,0.32-5.72,1.35-8.7c1.03-2.97,2.5-5.8,4.43-8.47
				c1.93-2.67,4.59-4.88,7.99-6.64c3.4-1.75,7.28-2.78,11.65-3.09c0.51,0,1.22-0.04,2.12-0.11c0.9-0.08,1.54-0.11,1.93-0.11
				c7.06,0,11.74,1.41,14.05,4.23c2.31,2.83,3.47,6.68,3.47,11.56c0,3.2-1.16,7.4-3.47,12.59c-2.31,5.19-3.85,10.76-4.62,16.71
				c3.72-10.37,9.43-20.44,17.13-30.21c7.7-9.76,14.95-14.65,21.76-14.65c5.78,0,9.72,3.24,11.84,9.73
				c2.12,6.49,2.63,13.77,1.54,21.85c-1.09,8.09-3.18,14.95-6.26,20.6c-4.37,8.24-9.43,12.36-15.21,12.36
				c-2.44,0-4.14-0.92-5.1-2.75c-0.96-1.83-0.8-4.35,0.48-7.55c1.67-3.81,2.02-8.01,1.06-12.59c-0.96-4.58-2.98-6.87-6.06-6.87
				c-4.24,0-9.02,4.46-14.34,13.39c-5.33,8.93-7.54,17.89-6.64,26.89c0.9,3.97,2.79,8.7,5.68,14.19s4.33,9.84,4.33,13.04
				c0,4.58-2.12,8.55-6.35,11.9c-4.24,3.36-10.01,5.03-17.33,5.03c-14.38,0-21.56-5.64-21.56-16.93c0-2.9,1.35-8.12,4.04-15.68
				s4.04-15.6,4.04-24.14c0-5.95-0.35-10.72-1.06-14.3c-0.71-3.58-1.51-5.87-2.41-6.87c-0.9-0.99-2.05-2.13-3.46-3.43
				C961.31,711.34,960.22,710.08,959.45,708.86z"/>
			<path class="st71" d="M1057.25,766.76c-0.77-8.54-0.23-16.74,1.64-24.6c1.86-7.86,3.69-14.38,5.49-19.57
				c1.8-5.18,2.37-9.23,1.73-12.13c-0.38-2.13-1.09-3.7-2.12-4.69c-1.03-0.99-2.02-1.6-2.98-1.83c-0.96-0.23-1.83-0.72-2.6-1.49
				c-0.77-0.76-1.16-1.98-1.16-3.66c0-6.25,2.08-11.82,6.26-16.71c4.17-4.88,9.59-7.32,16.27-7.32c8.98,0,15.66,3.09,20.02,9.27
				c4.36,6.18,4.88,14.99,1.54,26.43c-0.9,3.2-4.3,11.75-10.2,25.63c-4.75,11.6-5.97,18.69-3.66,21.28
				c1.03,1.07,2.44,1.68,4.24,1.83h0.58c5.78,0,12.38-4.46,19.83-13.39c7.44-8.92,10.78-17.89,10.01-26.89
				c-0.9-3.96-2.79-8.7-5.68-14.19c-2.89-5.49-4.33-9.84-4.33-13.04c0-4.58,2.08-8.54,6.26-11.9c4.17-3.35,9.98-5.04,17.42-5.04
				c7.96,0,14.25,1.45,18.87,4.35c4.62,2.9,6.93,7.09,6.93,12.59c0,2.75-0.71,5.38-2.12,7.9c-1.41,2.52-2.95,4.88-4.62,7.09
				c-1.67,2.21-3.21,6.22-4.62,12.01c-1.41,5.8-2.12,12.89-2.12,21.28c0,34.18-3.88,60.26-11.65,78.27c-7.77,18-18.96,27-33.6,27
				c-5.01,0-10.2-0.99-15.59-2.97c-10.78-4.12-17.26-10.98-19.45-20.6c-1.41-5.95-0.9-10.53,1.54-13.73c0.77-0.92,1.6-1.37,2.5-1.37
				c0.38,0,0.7,0.07,0.96,0.23c2.05,0.61,4.24,0.92,6.55,0.92c9.11,0,17.04-5,23.78-14.99s12.03-21.93,15.88-35.81
				c-5.01,9.92-11.23,18.54-18.68,25.86c-7.45,7.32-14.95,10.99-22.53,10.99c-6.03,0-10.81-2.36-14.34-7.09
				C1059.98,781.94,1057.89,775.3,1057.25,766.76z"/>
		</g>
	</g>
	<g class="st70">
		<g>
			<path class="st71" d="M358.53,871.39c0.01-6.09-0.25-10.33-0.81-12.72c-0.55-2.39-1.54-4.45-2.98-6.19
				c-0.88-1.02-1.89-1.83-3.02-2.42s-2.75-1.08-4.83-1.45h-0.14c-2.92-0.66-4.38-2.01-4.37-4.04c0-1.19,0.33-2.13,0.98-2.82
				c0.65-0.68,1.56-1.03,2.72-1.02c0.18,0,0.74,0.06,1.67,0.18c5.8,0.79,11.76,1.19,17.88,1.21c2.5,0.01,6.59-0.21,12.25-0.64
				c5.66-0.44,10.02-0.65,13.08-0.64c10.53,0.02,18.77,2.85,24.71,8.48c5.95,5.63,8.91,13.36,8.89,23.22
				c-0.01,6.39-1.34,11.71-3.97,15.98c-2.63,4.26-6.71,7.64-12.23,10.14c6.86,0.49,12.44,3.79,16.74,9.89s6.44,13.72,6.42,22.85
				c-0.01,5.67-0.91,11.09-2.68,16.25c-1.78,5.16-4.22,9.53-7.34,13.1c-3.3,3.7-7.09,6.34-11.36,7.94
				c-4.27,1.6-10.09,2.39-17.47,2.38c-3.25-0.01-6.42-0.1-9.53-0.29c-3.11-0.19-6.19-0.46-9.25-0.83c-0.79-0.06-1.89-0.17-3.3-0.32
				c-1.42-0.15-2.42-0.23-3.03-0.23c-2.6-0.01-6.01,0.25-10.23,0.78c-1.16,0.12-2,0.2-2.51,0.26c-1.16,0.18-2.18,0.31-3.06,0.4
				c-0.88,0.09-1.65,0.13-2.3,0.13c-1.07,0-1.9-0.29-2.5-0.86c-0.6-0.57-0.9-1.36-0.9-2.38c0-1.19,0.24-2.15,0.7-2.86
				c0.46-0.71,1.53-1.55,3.21-2.5c0.23-0.18,0.65-0.46,1.25-0.85c0.6-0.39,1.07-0.7,1.39-0.94c2-1.61,3.45-3.81,4.36-6.62
				c0.91-2.8,1.37-6.36,1.38-10.65L358.53,871.39z M375.4,918.63l-0.06,24.54c-0.02,8,1.05,13.27,3.2,15.81
				c2.15,2.54,6.24,3.82,12.27,3.83c7.1,0.02,12.66-2.51,16.68-7.57c4.02-5.06,6.05-12.05,6.07-20.94
				c0.02-8.9-2.42-15.93-7.33-21.11c-4.9-5.17-11.6-7.77-20.09-7.79c-4.55-0.01-7.47,0.65-8.77,2
				C376.07,908.73,375.41,912.48,375.4,918.63z M375.47,888c-0.01,4.06,0.88,6.69,2.66,7.89c1.78,1.2,6.27,1.81,13.46,1.82
				c5.89,0.01,10.09-1.51,12.6-4.58c2.51-3.07,3.78-8.24,3.79-15.53c0.02-8.72-2.07-15.74-6.28-21.06
				c-4.21-5.32-9.7-7.99-16.47-8.01c-3.62-0.01-6.14,1.11-7.56,3.34c-1.42,2.24-2.14,6.7-2.15,13.38L375.47,888z"/>
			<path class="st71" d="M442.5,932.49c0.03-11.94,3.26-22.04,9.71-30.29c6.44-8.25,14.21-12.37,23.3-12.35
				c9.97,0.02,18,3.75,24.08,11.16c6.08,7.42,9.11,17.19,9.08,29.31c-0.03,12.18-3.3,22.31-9.81,30.38
				c-6.51,8.08-14.69,12.1-24.52,12.08c-9.28-0.02-16.91-3.83-22.9-11.43C445.45,953.75,442.47,944.13,442.5,932.49z M457.06,922.31
				c-0.03,12.72,1.91,23.23,5.81,31.54c3.9,8.31,8.91,12.47,15.03,12.48c5.05,0.01,9.04-2.2,11.95-6.64
				c2.91-4.44,4.37-10.57,4.39-18.39c0.03-13.02-1.89-23.74-5.77-32.17c-3.88-8.43-8.76-12.65-14.65-12.66
				c-5.29-0.01-9.4,2.23-12.33,6.73C458.56,907.7,457.08,914.07,457.06,922.31z"/>
			<path class="st71" d="M568.01,958.3c-3.82,4.59-7.46,7.95-10.95,10.09c-3.48,2.14-7.01,3.21-10.58,3.2
				c-6.91-0.02-12.05-3.13-15.42-9.35c-3.37-6.22-5.04-15.62-5.01-28.22l0.05-19.43c0.01-5.31-0.2-8.85-0.64-10.61
				c-0.44-1.76-1.16-3.06-2.18-3.9c-0.19-0.18-0.45-0.34-0.8-0.49c-0.35-0.15-0.92-0.32-1.7-0.5c-1.58-0.3-2.64-0.77-3.2-1.4
				s-0.83-1.51-0.83-2.64c0-1.01,0.22-1.77,0.67-2.28c0.44-0.51,1.1-0.76,1.98-0.76c0.23,0,0.61,0.03,1.15,0.09
				c0.53,0.06,0.96,0.09,1.29,0.09c4.82,0.01,9.93-0.57,15.31-1.75c1.48-0.3,2.41-0.44,2.78-0.44c0.7,0,1.2,0.26,1.53,0.77
				c0.32,0.51,0.49,1.3,0.48,2.37c0,0.36-0.05,1.28-0.15,2.78c-0.39,6.09-0.58,11.82-0.6,17.19l-0.04,18.18
				c-0.02,10.33,1.05,17.65,3.22,21.95c2.17,4.3,5.71,6.46,10.63,6.47c4.31,0.01,7.56-1.31,9.75-3.96c2.19-2.65,3.28-6.58,3.3-11.77
				l0.07-31.34c0.01-4.24-0.19-7.16-0.61-8.78c-0.41-1.61-1.13-2.87-2.15-3.77c-0.19-0.12-0.44-0.25-0.76-0.4
				c-0.32-0.15-0.83-0.29-1.53-0.41c-1.71-0.36-2.86-0.86-3.44-1.49c-0.58-0.63-0.87-1.51-0.86-2.64c0-1.01,0.22-1.78,0.67-2.28
				s1.13-0.76,2.05-0.76c0.19,0,0.57,0.03,1.15,0.09c0.58,0.06,1.03,0.09,1.36,0.09c4.82,0.01,9.92-0.57,15.31-1.75
				c1.49-0.3,2.44-0.44,2.85-0.44c0.65,0,1.11,0.24,1.39,0.72c0.28,0.48,0.42,1.29,0.41,2.42c0,0.18-0.02,0.72-0.07,1.61
				c-0.34,5.85-0.51,11.97-0.53,18.36l-0.08,34.66c-0.01,4.36,0.18,7.24,0.57,8.64c0.39,1.41,1.1,2.5,2.11,3.27
				c0.74,0.48,1.88,0.84,3.41,1.08l0.21,0.09c1.39,0.12,2.29,0.41,2.71,0.86c0.42,0.45,0.62,1.12,0.62,2.02c0,1.43-0.46,2.43-1.36,3
				c-0.91,0.57-3.19,0.9-6.86,1.01c-0.37,0.12-0.74,0.18-1.11,0.18s-0.95,0-1.74,0c-2,0.12-4.24,0.63-6.72,1.55
				c-2.48,0.92-3.96,1.38-4.42,1.38c-1.02,0-1.8-0.27-2.33-0.81c-0.53-0.54-0.8-1.31-0.8-2.33l0-1.97L568.01,958.3z"/>
			<path class="st71" d="M609.08,947.74l0.1-42.36c0-1.37-0.18-2.39-0.55-3.05c-0.37-0.66-0.95-0.99-1.74-0.99l-2.99-0.01
				c-1.11,0-1.87-0.18-2.26-0.54c-0.39-0.36-0.59-0.93-0.59-1.7c0-0.78,1.5-2.94,4.5-6.48c3-3.54,5.73-7.11,8.2-10.68
				c1.54-2.15,3.19-4.83,4.96-8.05c1.82-3.16,3.17-4.74,4.05-4.74c0.56,0,0.96,0.26,1.21,0.76s0.38,1.27,0.38,2.28l-0.01,3.13
				l-0.03,14.15c0,1.49,0.17,2.45,0.51,2.87c0.35,0.42,1.08,0.63,2.19,0.63l7.37,0.02c1.44,0,2.84-0.61,4.21-1.83
				c1.37-1.22,2.12-1.83,2.26-1.83c0.37,0,0.67,0.18,0.9,0.54c0.23,0.36,0.35,0.84,0.34,1.43c-0.01,3.28-0.64,5.79-1.9,7.52
				c-1.26,1.73-3.04,2.59-5.36,2.58l-8-0.02c-0.97,0-1.65,0.22-2.02,0.67c-0.37,0.45-0.56,1.33-0.56,2.64l-0.1,41.46
				c-0.01,6.33,0.49,10.54,1.5,12.63c1.02,2.09,2.82,3.14,5.42,3.15c2.04,0,4.11-0.54,6.2-1.64c2.09-1.1,3.32-1.65,3.69-1.65
				c0.6,0,1.1,0.21,1.5,0.63c0.39,0.42,0.59,0.96,0.59,1.61c-0.01,2.39-2.08,5-6.21,7.82c-4.13,2.83-8.57,4.23-13.3,4.22
				c-5.43-0.01-9.2-1.74-11.33-5.18C610.11,964.32,609.06,957.65,609.08,947.74z"/>
			<path class="st71" d="M658.12,949.11l0.08-32.24c0.01-4.36-0.18-7.22-0.57-8.6c-0.39-1.37-1.1-2.48-2.11-3.32
				c-0.74-0.48-1.88-0.84-3.41-1.08l-0.14,0c-1.44-0.18-2.36-0.5-2.78-0.95c-0.42-0.45-0.62-1.12-0.62-2.02
				c0-1.07,0.24-1.86,0.7-2.37c0.46-0.51,1.7-1,3.69-1.47c1.48-0.29,2.81-0.63,3.97-1.02c1.16-0.38,2.32-0.84,3.48-1.38
				c2.74-1.19,5.35-2.58,7.84-4.19c2.48-1.61,3.77-2.41,3.87-2.41c0.6,0.06,1.03,0.41,1.29,1.03c0.25,0.63,0.38,1.66,0.38,3.09
				c0,0.12-0.03,0.57-0.07,1.34c-0.15,4-0.23,8-0.24,12l-0.1,42.18c-0.01,4.54,0.21,7.72,0.67,9.54c0.46,1.82,1.27,3.36,2.42,4.62
				c0.83,0.84,2.11,1.62,3.82,2.34c0.23,0.12,0.39,0.18,0.49,0.18c0.04,0.06,0.14,0.12,0.28,0.18c1.81,0.78,2.71,1.95,2.7,3.5
				c0,1.02-0.28,1.79-0.84,2.33c-0.56,0.54-1.35,0.8-2.37,0.8c-0.51,0-2.17-0.24-4.97-0.73c-2.8-0.48-5.37-0.73-7.69-0.73
				c-4.64-0.01-9.12,0.4-13.43,1.22c-0.65,0.12-1.07,0.18-1.25,0.18c-0.74,0-1.36-0.27-1.84-0.81s-0.73-1.25-0.73-2.15
				c0-0.66,0.14-1.22,0.42-1.7c0.28-0.48,0.91-1.04,1.88-1.7c1.95-1.37,3.3-3.02,4.05-4.96c0.75-1.94,1.12-4.46,1.13-7.57
				L658.12,949.11z M656.03,860.71c0-1.91,1.41-4.98,4.23-9.21c2.82-4.23,4.69-6.35,5.62-6.35c1.07,0,2.88,2.04,5.45,6.1
				c2.56,4.07,3.84,7.05,3.84,8.96c0,1.97-1.33,4.82-3.99,8.54c-2.65,3.73-4.53,5.59-5.65,5.58c-1.39,0-3.33-1.83-5.8-5.48
				C657.26,865.22,656.02,862.5,656.03,860.71z"/>
			<path class="st71" d="M737.33,960.49c-4.14,4.29-7.94,7.38-11.4,9.29c-3.46,1.9-7.04,2.85-10.75,2.84
				c-6.59-0.02-11.98-3.33-16.19-9.93c-4.21-6.61-6.3-15.19-6.27-25.76c0.03-13.43,3.06-24.46,9.09-33.07
				c6.03-8.61,13.63-12.91,22.82-12.89c6.59,0.02,12.66,1.91,18.21,5.68c1.02,0.66,1.64,0.99,1.88,0.99c0.79,0,1.86-1.59,3.21-4.79
				c1.35-3.19,2.56-4.79,3.63-4.78c0.56,0,0.96,0.29,1.22,0.85c0.25,0.57,0.38,1.45,0.38,2.64c0,0.24-0.05,2.13-0.15,5.69
				c-0.1,3.55-0.16,7.06-0.16,10.52l-0.2,84.54c0,2.03,0.27,3.73,0.82,5.11c0.55,1.37,1.64,2.72,3.26,4.04
				c0.83,0.66,1.4,1.26,1.7,1.8c0.3,0.54,0.45,1.1,0.45,1.7c0,0.83-0.2,1.54-0.6,2.1c-0.4,0.57-0.92,0.85-1.57,0.85
				c-0.09,0-0.42-0.06-0.97-0.18c-3.85-0.61-8.37-0.92-13.56-0.93c-2.69-0.01-5.45,0.17-8.28,0.52c-2.83,0.35-4.34,0.53-4.52,0.53
				c-1.21,0-2.12-0.3-2.75-0.9c-0.62-0.6-0.94-1.47-0.93-2.6c0-1.73,1.12-2.89,3.35-3.49h0.07c0.65-0.12,1.26-0.28,1.84-0.49
				c0.58-0.21,1.12-0.46,1.64-0.76c1.58-1.01,2.75-2.43,3.52-4.25c0.77-1.82,1.16-4.13,1.16-6.94L737.33,960.49z M737.34,953.77
				l0.09-37.79c0.01-2.81-0.14-4.99-0.44-6.54c-0.3-1.55-0.77-2.87-1.42-3.94c-1.48-2.33-3.52-4.26-6.11-5.79
				c-2.59-1.53-5.21-2.3-7.86-2.3c-5.29-0.01-9.39,2.35-12.3,7.09c-2.91,4.74-4.38,11.47-4.4,20.18
				c-0.02,9.79,1.95,18.08,5.93,24.87c3.97,6.79,8.65,10.18,14.03,10.2c1.81,0,3.65-0.44,5.53-1.33
				C732.29,957.52,734.6,955.97,737.34,953.77z"/>
			<path class="st71" d="M817.13,958.88c-3.81,4.59-7.46,7.95-10.95,10.09s-7.01,3.21-10.58,3.2c-6.91-0.02-12.05-3.13-15.42-9.35
				c-3.37-6.22-5.04-15.62-5.01-28.22l0.04-19.43c0.01-5.31-0.2-8.85-0.63-10.61c-0.44-1.76-1.17-3.06-2.18-3.9
				c-0.19-0.18-0.45-0.34-0.8-0.49s-0.92-0.32-1.7-0.5c-1.58-0.3-2.64-0.77-3.2-1.4s-0.83-1.51-0.83-2.64
				c0-1.01,0.22-1.78,0.67-2.28c0.44-0.51,1.1-0.76,1.99-0.76c0.23,0,0.61,0.03,1.15,0.09c0.53,0.06,0.96,0.09,1.29,0.09
				c4.82,0.01,9.93-0.57,15.31-1.76c1.48-0.29,2.41-0.44,2.78-0.44c0.7,0,1.2,0.26,1.53,0.77c0.32,0.51,0.48,1.3,0.48,2.37
				c0,0.36-0.05,1.28-0.15,2.78c-0.39,6.09-0.58,11.82-0.6,17.19l-0.04,18.18c-0.02,10.33,1.05,17.65,3.22,21.95
				c2.17,4.3,5.71,6.46,10.63,6.47c4.31,0.01,7.56-1.31,9.75-3.96c2.19-2.65,3.28-6.58,3.3-11.77l0.07-31.34
				c0.01-4.24-0.19-7.16-0.61-8.78s-1.13-2.87-2.15-3.77c-0.19-0.12-0.44-0.25-0.76-0.4c-0.33-0.15-0.83-0.29-1.53-0.41
				c-1.71-0.36-2.86-0.86-3.44-1.49c-0.58-0.63-0.87-1.51-0.86-2.64c0-1.01,0.22-1.78,0.67-2.28c0.44-0.51,1.13-0.76,2.05-0.76
				c0.18,0,0.57,0.03,1.15,0.09c0.58,0.06,1.03,0.09,1.36,0.09c4.82,0.01,9.93-0.57,15.31-1.75c1.49-0.3,2.44-0.44,2.85-0.44
				c0.65,0,1.11,0.24,1.39,0.72s0.41,1.29,0.41,2.42c0,0.18-0.02,0.72-0.07,1.61c-0.34,5.85-0.52,11.97-0.53,18.36l-0.08,34.66
				c-0.01,4.36,0.18,7.24,0.57,8.64c0.39,1.41,1.1,2.5,2.11,3.27c0.74,0.48,1.88,0.84,3.41,1.08l0.21,0.09
				c1.39,0.12,2.29,0.41,2.71,0.86c0.42,0.45,0.62,1.12,0.62,2.02c0,1.43-0.46,2.43-1.36,3c-0.91,0.57-3.19,0.9-6.86,1.01
				c-0.37,0.12-0.74,0.18-1.11,0.18c-0.37,0-0.95,0-1.74,0c-2,0.12-4.24,0.63-6.72,1.55c-2.48,0.92-3.96,1.38-4.42,1.38
				c-1.02,0-1.8-0.27-2.33-0.81c-0.53-0.54-0.8-1.31-0.79-2.33l0-1.97L817.13,958.88z"/>
			<path class="st71" d="M871.05,926.49c-2.5-0.01-4.06,0.29-4.66,0.88c-0.61,0.6-0.91,1.97-0.91,4.12
				c-0.02,7.76,2.08,14.66,6.28,20.7c4.21,6.04,9.28,9.07,15.21,9.08c4.22,0.01,8.32-1.58,12.29-4.76c3.97-3.18,6.19-4.78,6.66-4.78
				c0.51,0,0.89,0.2,1.15,0.58c0.25,0.39,0.38,1.06,0.38,2.02c-0.01,3.52-3.14,7.6-9.39,12.25c-6.25,4.64-12.99,6.96-20.23,6.94
				c-7.75-0.02-14.17-3.6-19.28-10.75s-7.65-16.24-7.62-27.29c0.03-12.78,2.79-23.28,8.28-31.5c5.49-8.23,12.46-12.33,20.9-12.31
				c7.56,0.02,13.98,3.12,19.25,9.31c5.27,6.19,7.9,13.14,7.88,20.84c0,2.09-0.27,3.4-0.81,3.94c-0.53,0.54-2.1,0.8-4.7,0.79
				L871.05,926.49z M870.5,921.21l9.95,0.02c4.64,0.01,7.7-0.29,9.19-0.92c1.48-0.62,2.23-2.25,2.24-4.88
				c0.01-5.25-1.28-9.63-3.87-13.13c-2.59-3.5-5.83-5.25-9.73-5.26c-3.71-0.01-6.81,1.92-9.3,5.8c-2.49,3.88-3.74,8.65-3.75,14.32
				c0,1.61,0.35,2.69,1.07,3.23C867.01,920.93,868.42,921.2,870.5,921.21z"/>
		</g>
	</g>
</g>
<g>
	<g>
		<g>
			<path class="st74" d="M720.46,379.68c-21.49-1.1-27.21-20.34-26.68-23.34c6.67-38.55-14.82-45.22-16.67-45.96
				c-8.4-3.36-14.85-9.5-19.71-16.77c-0.89-1.63-1.85-3.2-2.86-4.73c-1.86-2.84-3.92-5.52-6.18-8.04
				c-13.28-14.85-29.74-22.27-49.41-22.27h-23.32c-4.4,0-7.95,0.92-10.66,2.75v53.62c0.16,0.25,0.31,0.5,0.47,0.74
				c0.01-2.07,0.02-4.05,0.04-5.94c0-0.37,0.01-0.74,0.01-1.1c0.01-2.13,0.02-4.14,0.03-6.04c0.04-7.34,0.05-12.98,0.05-16.93
				c0-10.76,4.97-16.15,14.92-16.15h20.3c17.11,0,31.44,6.46,42.98,19.38c1.96,2.2,3.75,4.53,5.38,7c0.88,1.33,1.71,2.71,2.49,4.12
				c6.3,11.38,9.44,25.32,9.44,41.85c0,21.96-5.77,39.83-17.31,53.61c-4.02,4.79-8.36,8.75-13.05,11.87c-0.77,0.51-1.53,1-2.31,1.46
				c-0.34,0.2-0.7,0.41-1.05,0.6c-0.91,0.52-1.84,1.01-2.77,1.46c1.94,2.66,3.99,5.26,6.11,7.79c1.67,1.99,3.4,3.95,5.17,5.83
				c12.16,12.98,32.19,29.53,58.43,34.6c2.74,0.53,5.47,0.98,8.19,1.36c1.2-0.87,2.4-1.76,3.57-2.68c5.2-4.08,10.1-8.7,14.72-13.85
				c15.74-17.58,25.88-37.34,30.42-59.29C742.76,379.87,732.76,380.32,720.46,379.68z M617.81,94.63
				c2.21,4.52,5.75,7.14,16.74,14.84c10.18,7.13,14.08,15.99,14.15,16.16c0,0,13.62,29.7,18.9,41.15
				c3.88,8.42-0.21,20.99-1.99,23.66c-2.49,3.74-13.61,31.2-14.08,32.61c-3.88,11.64-3.65,25.66-2.53,28.45
				c1.38,3.46,4.23,9.26,7.79,9.26c0.98,0,1.9-0.42,2.54-1.14c0.49-0.55,1.02-1.52,0.83-2.99c-0.96-7.71-1.4-18.57,2.01-26.56
				c6.07-14.3,8.17-18.77,10.37-20.8c21.06-19.54,10.53-42.12,9.59-44.02c-0.68-1.47-20.48-44.3-25.17-54.78
				c-4.93-11-13.17-13.23-15.03-13.61l-20.24-6.87c2.87-3.48,5.74-7.08,8.12-10.28c-1.19-0.15-2.38-0.29-3.58-0.42
				c-4.79-0.51-9.72-0.82-14.78-0.92c-1.05-0.03-2.1-0.04-3.16-0.04c-2.24,11.67-5.33,24.32-5.37,24.52l5.36,2.81
				C609.24,104.56,613.2,100.09,617.81,94.63z M615.9,414.15c-0.89,0.25-1.79,0.47-2.7,0.67c-0.08,0.02-0.15,0.04-0.22,0.05
				c-2.52,0.56-5.11,0.92-7.77,1.11c-0.87,0.07-1.76,0.12-2.65,0.13h-0.06c-0.56,0.02-1.13,0.03-1.7,0.03h-1.38
				c0.54,3.74,1.04,7.4,1.51,10.92c1.16,8.7,2.13,16.57,2.9,22.88c0.61,4.96,1.09,8.87,1.47,11.66c0.64,4.65,0.96,6.99,3.91,6.99
				c0.01,0,0.01,0,0.01,0c1.26-0.01,2.72-0.81,3.12-2.6c3.04-13.51,4.07-27.77,4-41.18c-0.02-3.64-0.11-7.22-0.27-10.7
				C616,414.12,615.95,414.14,615.9,414.15z M572.94,97.81c-1.06,0.97-2.08,1.88-3.02,2.92c-1.62,1.77-3.85,5.4-4.78,8.66
				c-1.04,3.66-1.77,7.08-1.98,10.39c0.86-1.79,2.1-3.25,3.72-4.38c2.83-1.99,6.8-2.99,11.94-2.99c2.12,0.06,4.19,0.19,6.2,0.4
				c1.18,0.12,2.34,0.27,3.48,0.44c-1.79-4.89-2.74-8.66-2.32-9.88c5.19-11.57,6.13-19.73,5.72-25.05h-7.78
				c-0.01,3.52-0.4,6.06-1.96,8.86c-1.02-1.02-2.64-1.43-3.44-1.63l-0.18-0.04l-0.18-0.02c-0.4-0.05-9.9-1.27-18.85-1.27
				c-3.43,0-6.36,0.18-8.71,0.54c-3.76,0.58-6.61,2.2-8.46,4.82c-3.25,4.58-2.6,10.97-1.54,16.62c1.46,7.75,4.1,22.59,4.78,29.02
				c0.11,1.09,0.27,2.41,0.45,3.88c0.93,7.68,2.48,20.52,0.72,28.47l-0.36,1.6c-1.47,6.63-1.47,6.63-2.64,8.97
				c-0.23,0.47-0.51,1.03-0.85,1.72c-1.65,3.42-4.54,6.95-6.86,9.79c-1.36,1.66-2.53,3.09-3.33,4.33
				c-2.5,3.86-6.83,11.92-13.26,28.35c-6.83,17.44-6.17,39.95-6.14,40.93c0.04,0.94,0.47,9.31,2.55,13.48
				c0.79,1.6,1.92,2.41,3.33,2.41l1.39-0.05l0.92-0.92c1.22-1.23,1.2-2.62,1.15-7.2c-0.05-3.59-0.11-8.5,0.56-12.54l0.25-1.47
				c1.51-9.22,4.67-28.43,13.18-45.45c2.25-4.5,12.53-21.54,18.4-27.8c6.32-6.77,6.86-27.3,3.6-35.86
				c-1.66-4.35-3.51-11.74-3.13-30.33c0.06-3.03,0.05-5.69,0.03-8.03c-0.09-11.67-0.09-12.9,8.21-14.56l4.69-0.94
				c5.6-1.13,6.16-1.24,7.35-1.24l0.72,0.01c0.4,0.01,0.87,0.01,1.46,0.01h0.01C576.04,95,574.42,96.47,572.94,97.81z"/>
		</g>
		<g>
			<g>
				<path class="st72" d="M630.74,211.93c-0.55,1.07-1.13,2.11-1.74,3.13c-1.89,3.16-4.09,6.06-6.6,8.71
					c-10.3,10.89-24.59,16.83-42.89,17.82c-11.44,0-17.16-4.7-17.16-14.11c0-5.52-0.05-15.29-0.16-29.27
					c-0.01-1.63-0.03-3.32-0.04-5.07c0.64-0.8,1.27-1.57,1.88-2.33c0.57-0.7,1.13-1.39,1.68-2.08l0.14-0.18l0.17-0.16
					c0.11-0.11,11.07-10.32,15.49-14.74c2.46-2.84-1.98-23.92-10.1-32.75c-6.65-7.23-8.69-13.89-8.24-21.11
					c0.21-3.3,0.94-6.73,1.98-10.39c0.93-3.26,3.16-6.89,4.78-8.66c0.95-1.04,1.96-1.95,3.02-2.92c1.48-1.34,3.1-2.82,5.03-5.02
					c0.68-0.77,1.4-1.64,2.17-2.62c0.82-1.06,1.49-2.05,2.02-3c1.56-2.8,1.96-5.34,1.96-8.86c0.01-1.53-0.07-3.23-0.15-5.23
					l-0.48-11.57l6.11,8.79c0.34,0.5,1.92,3,2.3,8.01c0.41,5.33-0.53,13.49-5.72,25.05c-0.42,1.23,0.53,4.99,2.32,9.88
					c1.67,4.56,4.08,10.1,6.82,15.48c3.71,6.04,9.86,15.18,12.08,16.79c0.33,0.24,0.7,0.49,1.08,0.75c4.41,3.05,13.6,9.38,9.38,25.9
					c-0.43,2.23-0.05,18.13,4.92,27.4c0.12,0.2,0.74,1.15,1.35,2.06C625.65,203.92,628.1,207.63,630.74,211.93z"/>
				<path class="st72" d="M807.64,426.64c-3.75,3.62-11.35,10.6-20.17,16.75c-7.96,5.55-30.22,18.48-64.84,18.48
					c-6.59,0-13.34-0.48-20.13-1.42c-2.72-0.38-5.45-0.84-8.19-1.36c-26.25-5.07-46.27-21.62-58.43-34.6
					c-1.77-1.89-3.5-3.84-5.17-5.83c-2.13-2.53-4.17-5.13-6.11-7.79c-3.72-5.07-7.1-10.35-10.03-15.65
					c0.64,5.8,1.19,12.18,1.49,18.89c0.16,3.48,0.26,7.07,0.27,10.7c0.07,13.41-0.96,27.67-4,41.18c-0.4,1.79-1.86,2.6-3.12,2.6
					c-0.01,0-0.01,0-0.01,0c-2.95,0-3.27-2.34-3.91-6.99c-0.39-2.78-0.87-6.7-1.47-11.66c-0.77-6.31-1.74-14.18-2.9-22.88
					c-0.47-3.52-0.97-7.18-1.51-10.92c-3.9-27.28-9.54-59.16-17.07-76.73c-0.27-0.57-1.89-2.69-3.45-4.75
					c-3.34-4.37-8.28-10.86-13.43-18.99c-0.16-0.25-0.31-0.49-0.47-0.74v-53.62c2.71-1.84,6.26-2.75,10.66-2.75h23.32
					c19.67,0,36.13,7.42,49.41,22.27c2.26,2.53,4.31,5.2,6.18,8.04c1.02,1.53,1.97,3.11,2.86,4.73
					c4.86,7.27,11.31,13.41,19.71,16.77c1.85,0.74,23.34,7.41,16.67,45.96c-0.52,3,5.19,22.24,26.68,23.34
					c12.3,0.64,22.29,0.19,30.74,4.95c0.22-1.06,0.43-2.13,0.62-3.21c7.17,3.72,13.45,10.69,18.91,24.01
					c0.44,0.7,6.86,10.32,22.44,10.32c2.93,0,6-0.34,9.21-1.04c3.2-0.69,6.52-1.72,9.95-3.09c0.53-0.21,1.03-0.32,1.53-0.32
					c1.46,0,2.72,0.92,3.15,2.29C817.5,415.18,817.97,416.68,807.64,426.64z"/>
				<path class="st72" d="M629,215.06c-1.89,3.16-4.09,6.06-6.6,8.71c-10.3,10.89-24.59,16.83-42.89,17.82
					c-11.44,0-17.16-4.7-17.16-14.11c0-5.52-0.05-15.29-0.16-29.27c2.08-2.82,4.12-5.22,5.96-7.53c0,0,11.05-10.31,15.57-14.82
					c4.44-4.45-1.49-27.8-10.01-37.07c-7.18-7.8-8.52-14.61-6.81-23.39c0.32-1.64,0.74-3.35,1.26-5.14c0.74-2.6,2.65-5.86,4.07-7.41
					c2.53-2.75,5.71-4.75,10.38-10.75c3.82-4.9,4.63-8.62,4.64-13.78c0-1.85-0.09-3.89-0.19-6.23c0,0,1.34,1.92,1.71,6.23
					c0.41,4.78-0.36,12.49-5.42,23.78c-0.87,1.93,0.1,6.13,1.68,10.71c2.81,8.13,7.58,17.45,7.58,17.45s9.22,15.06,12.97,17.79
					c4.07,2.97,13.29,7.6,9.27,23.35c-0.53,2.09-0.37,19.27,5.19,29.64C620.48,201.89,624.63,207.81,629,215.06z"/>
				<path class="st72" d="M785.69,440.83c-14.53,10.14-42.2,21.34-79.63,16.94c-3.64-0.43-7.36-1.01-11.17-1.74
					c-24.45-4.72-45.83-20.5-61.54-39.05c-2.1-2.48-4.1-5.02-6-7.58c-9.48-12.83-16.26-26.4-19.57-38.24
					c-0.02-0.08-0.04-0.12-0.04-0.12c0,0.38,4.16,19.34,5.22,43.83c0.15,3.47,0.24,7.06,0.25,10.71
					c0.02,12.87-0.99,26.66-3.93,39.73c-0.47,2.07-2.16-15.25-5.26-38.4c-0.46-3.48-0.96-7.09-1.48-10.79
					c-3.93-27.59-9.65-59.94-17.36-77.93c-1-2.33-10.43-12.84-19.72-28.44c-0.17-0.28-0.33-0.56-0.5-0.85v-47.57
					c2.71-1.84,6.26-2.75,10.66-2.75h23.32c19.67,0,36.13,7.42,49.41,22.27c2.26,2.53,4.31,5.2,6.18,8.04
					c0.88,1.62,1.84,3.2,2.86,4.73c4.86,7.27,11.31,13.41,19.71,16.77c1.85,0.74,23.34,7.41,16.67,45.96
					c-0.52,3,5.19,22.24,26.68,23.34c12.3,0.64,22.29,0.19,30.74,4.95c6.32,3.57,11.78,10.05,16.69,22.1
					c0.57,1.37,13.73,20.54,45.59,7.79C817.19,413.04,801.63,429.71,785.69,440.83z"/>
				<path class="st72" d="M624.4,16.86C620.69,11.8,610.33,0,594.23,0c-4.55,0-9.24,0.96-13.92,2.85
					c-6.42,2.6-12.98,13.04-13.71,14.22l-3.17,5.18l6.07-0.45c0.04,0,0.18-0.01,0.39-0.01c1.78,0,6.08,0.44,7.53,4.61
					c1.14,3.25,7.43,13.3,13.94,17.2c3.73,2.24,9.21,4.2,16.3,5.81c0.92,1.15,2.93,5.48,2.93,12.28c0,3.49-1.02,9.89-2.31,16.62
					c-2.24,11.67-5.33,24.32-5.37,24.52l5.36,2.81c0.96-1.09,4.92-5.56,9.53-11.01c1.26-1.5,2.57-3.06,3.89-4.66
					c2.87-3.48,5.74-7.08,8.12-10.28c2.55-3.43,4.53-6.4,5.32-8.27c0.14-0.33,0.29-0.68,0.45-1.05
					C638.95,62.6,645.97,46.4,624.4,16.86z"/>
				<path class="st72" d="M632.26,70.22c-2.97,7.04-26.31,33.36-26.31,33.36s7.78-31.85,7.78-41.88c0-9.26-3.37-14.87-4.82-15.19
					c-6.67-1.48-12.23-3.33-15.93-5.56c-5.73-3.43-11.61-12.74-12.6-15.56c-2.59-7.42-11.12-6.68-11.12-6.68s6.56-10.68,12.23-12.97
					c19.28-7.78,33.36,3.33,40.4,12.97C643.44,48.22,635.22,63.18,632.26,70.22z"/>
				<path class="st72" d="M672.55,209.26c-2.2,2.03-4.3,6.5-10.37,20.8c-3.4,7.99-2.96,18.85-2.01,26.56
					c0.19,1.47-0.34,2.44-0.83,2.99c-0.64,0.72-1.57,1.14-2.54,1.14c-3.57,0-6.41-5.8-7.79-9.26c-1.13-2.79-1.35-16.81,2.53-28.45
					c0.47-1.41,11.59-28.88,14.08-32.61c1.78-2.67,5.87-15.23,1.99-23.66c-5.28-11.45-18.9-41.15-18.9-41.15
					c-0.07-0.16-3.97-9.03-14.15-16.16c-10.99-7.69-14.53-10.31-16.74-14.84c-0.08-0.17-0.16-0.34-0.25-0.52l-1.19-2.63l-1.77-3.92
					l3.93,1.33l3.16,1.08l20.24,6.87c1.86,0.37,10.1,2.61,15.03,13.61c4.69,10.48,24.49,53.31,25.17,54.78
					C683.08,167.14,693.61,189.73,672.55,209.26z"/>
				<path class="st72" d="M670.43,206.98c-2.69,2.5-4.82,7.04-11.12,21.87c-0.92,2.15-4.45,10.37-2.23,28.16
					c0.24,1.84-2.66-0.34-5.18-6.67c-0.75-1.85-1.11-15.19,2.59-26.31c0.37-1.11,11.49-28.53,13.71-31.87
					c2.23-3.33,6.67-17.05,2.23-26.69c-5.29-11.45-18.9-41.14-18.9-41.14s-4.08-9.63-15.19-17.41c-11.12-7.78-14.09-10-15.93-14.09
					l20.75,7.04c0,0,8.16,1.11,12.97,11.86c4.82,10.75,25.2,54.85,25.2,54.85S690.82,188.07,670.43,206.98z"/>
				<path class="st72" d="M583.03,89.79c-0.37,3-3.66,3.01-5.06,3.01h-0.01c-0.59,0-1.06-0.01-1.46-0.01l-0.72-0.01
					c-1.19,0-1.75,0.11-7.35,1.24l-4.69,0.94c-8.31,1.66-8.3,2.88-8.21,14.56c0.02,2.34,0.04,4.99-0.03,8.03
					c-0.38,18.58,1.47,25.97,3.13,30.33c3.26,8.55,2.73,29.09-3.6,35.86c-5.87,6.25-16.15,23.3-18.4,27.8
					c-8.51,17.02-11.67,36.23-13.18,45.45l-0.25,1.47c-0.67,4.04-0.61,8.95-0.56,12.54c0.06,4.58,0.08,5.96-1.15,7.2l-0.92,0.92
					l-1.39,0.05c-1.41,0-2.53-0.81-3.33-2.41c-2.09-4.17-2.51-12.54-2.55-13.48c-0.03-0.98-0.68-23.49,6.14-40.93
					c6.42-16.43,10.76-24.49,13.26-28.35c0.8-1.24,1.98-2.67,3.33-4.33c2.31-2.84,5.2-6.37,6.86-9.79c0.33-0.69,0.61-1.25,0.85-1.72
					c1.17-2.34,1.17-2.34,2.64-8.97l0.36-1.6c1.77-7.95,0.21-20.8-0.72-28.47c-0.18-1.47-0.34-2.79-0.45-3.88
					c-0.68-6.43-3.33-21.27-4.78-29.02c-1.06-5.65-1.71-12.04,1.54-16.62c1.85-2.62,4.7-4.24,8.46-4.82
					c2.35-0.36,5.28-0.54,8.71-0.54c8.96,0,18.45,1.22,18.85,1.27l0.18,0.02l0.18,0.04c0.8,0.2,2.42,0.61,3.44,1.63
					C582.78,87.78,583.18,88.63,583.03,89.79z"/>
				<path class="st72" d="M577.97,89.68c-4.45,0-1.85-0.37-14.83,2.22c-12.97,2.59-10.37,7.41-10.74,25.57
					c-0.37,18.16,1.33,26.23,3.33,31.5c2.97,7.78,2.41,26.87-2.96,32.62c-6.3,6.72-16.68,24.08-18.9,28.53
					c-9.2,18.39-12.23,38.91-13.71,47.81c-1.48,8.89,0.37,21.12-1.48,17.41c-1.85-3.7-2.23-12.23-2.23-12.23s-0.74-22.61,5.93-39.66
					c6.67-17.05,10.96-24.68,12.97-27.79c2.04-3.15,7.6-8.71,10.38-14.45c2.35-4.86,1.85-2.97,4.08-12.97
					c2.22-10-0.37-26.31-1.11-33.36c-0.74-7.04-3.7-23.34-4.82-29.27c-1.33-7.07-2.22-16.31,7.41-17.79
					c9.64-1.48,26.69,0.74,26.69,0.74S582.41,89.68,577.97,89.68z"/>
			</g>
		</g>
		<path d="M753.96,356.89c0,8.45-0.71,16.63-2.14,24.53c-0.19,1.08-0.4,2.15-0.62,3.21c-8.45-4.76-18.44-4.31-30.74-4.95
			c-21.49-1.1-27.21-20.34-26.68-23.34c6.67-38.55-14.82-45.22-16.67-45.96c-8.4-3.36-14.85-9.5-19.71-16.77
			c-0.89-1.63-1.85-3.2-2.86-4.73c-1.86-2.84-3.92-5.52-6.18-8.04c-13.28-14.85-29.74-22.27-49.41-22.27h-23.32
			c-4.4,0-7.95,0.92-10.66,2.75v53.62c0.16,0.25,0.31,0.5,0.47,0.74c-0.05,7.89-0.11,17.05-0.18,27.47
			c-0.2,28.85-0.29,47.79-0.29,56.84c0,10.77,4.97,16.15,14.92,16.15h19.51c0.54,3.74,1.04,7.4,1.51,10.92
			c1.16,8.7,2.13,16.57,2.9,22.88c0.61,4.96,1.09,8.87,1.47,11.66c0.64,4.65,0.96,6.99,3.91,6.99c0.01,0,0.01,0,0.01,0
			c1.26-0.01,2.72-0.81,3.12-2.6c3.04-13.51,4.07-27.77,4-41.18c-0.02-3.64-0.11-7.22-0.27-10.7c2.95-0.82,5.79-1.91,8.53-3.24
			c1.94,2.66,3.99,5.26,6.11,7.79c1.67,1.99,3.4,3.95,5.17,5.83c12.16,12.98,32.19,29.53,58.43,34.6c2.74,0.53,5.47,0.98,8.19,1.36
			c-18.99,13.68-41.64,20.52-67.97,20.52H520.39c-15.22,0-28.93-3.45-41.14-10.34c-12.21-6.89-18.31-17.81-18.31-32.74
			c0-6.51,1.94-14.74,5.84-24.7c3.89-9.95,7.7-23.74,11.42-41.36c3.72-17.61,5.57-39.43,5.57-65.48v-53.42
			c0-25.65-1.85-47.39-5.57-65.2c-3.72-17.81-7.52-31.68-11.42-41.64c-3.9-9.95-5.84-18.38-5.84-25.28
			c0-14.94,6.11-25.75,18.31-32.45c12.21-6.69,25.92-10.05,41.14-10.05h63.73c-0.01,3.52-0.4,6.06-1.96,8.86
			c-1.02-1.02-2.64-1.43-3.44-1.63l-0.18-0.04l-0.18-0.02c-0.4-0.05-9.9-1.27-18.85-1.27c-3.43,0-6.36,0.18-8.71,0.54
			c-3.76,0.58-6.61,2.2-8.46,4.82c-3.25,4.58-2.6,10.97-1.54,16.62c1.46,7.75,4.1,22.59,4.78,29.02c0.11,1.09,0.27,2.41,0.45,3.88
			c0.93,7.68,2.48,20.52,0.72,28.47l-0.36,1.6c-1.47,6.63-1.47,6.63-2.64,8.97c-0.23,0.47-0.51,1.03-0.85,1.72
			c-1.65,3.42-4.54,6.95-6.86,9.79c-1.36,1.66-2.53,3.09-3.33,4.33c-2.5,3.86-6.83,11.92-13.26,28.35
			c-6.83,17.44-6.17,39.95-6.14,40.93c0.04,0.94,0.47,9.31,2.55,13.48c0.79,1.6,1.92,2.41,3.33,2.41l1.39-0.05l0.92-0.92
			c1.22-1.23,1.2-2.62,1.15-7.2c-0.05-3.59-0.11-8.5,0.56-12.54l0.25-1.47c1.51-9.22,4.67-28.43,13.18-45.45
			c2.25-4.5,12.53-21.54,18.4-27.8c6.32-6.77,6.86-27.3,3.6-35.86c-1.66-4.35-3.51-11.74-3.13-30.33c0.06-3.03,0.05-5.69,0.03-8.03
			c-0.09-11.67-0.09-12.9,8.21-14.56l4.69-0.94c5.6-1.13,6.16-1.24,7.35-1.24l0.72,0.01c0.4,0.01,0.87,0.01,1.46,0.01h0.01
			c-1.93,2.2-3.55,3.67-5.03,5.02c-1.06,0.97-2.08,1.88-3.02,2.92c-1.62,1.77-3.85,5.4-4.78,8.66c-1.04,3.66-1.77,7.08-1.98,10.39
			c-1,2.06-1.5,4.55-1.5,7.46c0,8.43,0.11,25.25,0.34,50.49c0.05,5.55,0.09,10.69,0.13,15.4c0.01,1.75,0.03,3.44,0.04,5.07
			c0.11,13.99,0.16,23.75,0.16,29.27c0,9.41,5.72,14.11,17.16,14.11c18.3-0.99,32.59-6.93,42.89-17.82c2.51-2.65,4.71-5.55,6.6-8.71
			c0.61-1.02,1.19-2.06,1.74-3.13c4.73-9.22,7.09-20.37,7.09-33.45c0-19.79-5.27-35.64-15.78-47.52
			c-8.59-9.69-19.78-15.6-33.55-17.71c-1.79-4.89-2.74-8.66-2.32-9.88c5.19-11.57,6.13-19.73,5.72-25.05h15.55
			c0.28,0,0.56,0,0.84,0.01c-2.24,11.67-5.33,24.32-5.37,24.52l5.36,2.81c0.96-1.09,4.92-5.56,9.53-11.01
			c2.21,4.52,5.75,7.14,16.74,14.84c10.18,7.13,14.08,15.99,14.15,16.16c0,0,13.62,29.7,18.9,41.15c3.88,8.42-0.21,20.99-1.99,23.66
			c-2.49,3.74-13.61,31.2-14.08,32.61c-3.88,11.64-3.65,25.66-2.53,28.45c1.38,3.46,4.23,9.26,7.79,9.26c0.98,0,1.9-0.42,2.54-1.14
			c0.49-0.55,1.02-1.52,0.83-2.99c-0.96-7.71-1.4-18.57,2.01-26.56c6.07-14.3,8.17-18.77,10.37-20.8
			c21.06-19.54,10.53-42.12,9.59-44.02c-0.68-1.47-20.48-44.3-25.17-54.78c-4.93-11-13.17-13.23-15.03-13.61l-20.24-6.87
			c2.87-3.48,5.74-7.08,8.12-10.28c25.37,3.28,46.76,12.39,64.16,27.33c22.29,19.15,33.44,41.36,33.44,66.63
			c0,28.34-10.62,52.47-31.85,72.37C734.49,262.89,753.96,299.84,753.96,356.89z"/>
	</g>
	<g>
		<path d="M10.1,603.38c0-12.47-0.82-23.03-2.47-31.69s-3.33-15.4-5.05-20.24C0.86,546.61,0,542.52,0,539.17
			c0-7.26,2.7-12.52,8.1-15.77c5.4-3.25,11.47-4.89,18.2-4.89h38.52c15.66,0,28.42,4.65,38.28,13.96c9.86,9.31,14.8,20.1,14.8,32.38
			c0,13.78-4.7,25.5-14.09,35.18c17.22,8.19,25.84,26.15,25.84,53.88c0,16.19-4.9,30.29-14.68,42.29
			c-9.79,12-22.51,18.01-38.17,18.01h-50.5c-6.73,0-12.8-1.67-18.2-5.03c-5.4-3.35-8.1-8.65-8.1-15.91c0-3.16,0.86-7.16,2.58-12
			c1.72-4.84,3.41-11.54,5.05-20.1c1.64-8.56,2.47-19.17,2.47-31.83V603.38z M54.25,545.59c-3.92,0-5.87,1.86-5.87,5.58
			c0,3.17,0.04,9.49,0.12,18.98c0.08,9.49,0.12,15.73,0.12,18.71c0,3.54,1.96,5.3,5.87,5.3c6.26-0.37,11.16-2.6,14.68-6.7
			c3.52-4.09,5.28-9.77,5.28-17.03c0-7.44-1.8-13.4-5.4-17.87C65.45,548.1,60.52,545.78,54.25,545.59z M48.38,671.78
			c0,4.65,1.96,6.98,5.87,6.98h8.22c6.73,0,12.37-2.98,16.91-8.93c4.54-5.95,6.81-13.68,6.81-23.17c0-9.67-2.27-17.31-6.81-22.89
			c-4.54-5.58-10.18-8.38-16.91-8.38h-7.99c-3.92,0-5.87,2.33-5.87,6.98c0,4.1-0.04,12.38-0.12,24.85
			C48.42,659.68,48.38,667.87,48.38,671.78z"/>
		<path d="M172.39,714.21c-8.77,0-15.35-2-19.73-6c-4.39-4-6.58-8.89-6.58-14.66c0-3.35,0.82-7.44,2.47-12.28
			c1.64-4.84,3.29-11.54,4.93-20.1c1.64-8.56,2.47-19.17,2.47-31.83V601.7c0-7.26-0.47-13.44-1.41-18.57
			c-0.94-5.12-1.88-8.65-2.82-10.61s-2.39-4.23-4.35-6.84c-1.96-2.6-3.25-4.47-3.88-5.58c-1.25-2.05-1.96-4.79-2.11-8.24
			c-0.15-3.44,0.39-7.07,1.64-10.89c1.25-3.81,3.05-7.4,5.4-10.75c2.35-3.35,5.6-6.14,9.75-8.38c4.15-2.23,8.88-3.35,14.21-3.35
			c8.3,0,14.13,2.47,17.5,7.4c3.37,4.93,5.05,10.01,5.05,15.21c0,5.96-1.25,14.57-3.76,25.82c-2.51,11.26-3.76,22.85-3.76,34.76
			v27.64c0,12.47,0.94,23.03,2.82,31.69c1.88,8.65,3.76,15.4,5.64,20.24c1.88,4.84,2.82,8.93,2.82,12.28
			c0,5.4-2.55,10.19-7.63,14.38C185.97,712.12,179.75,714.21,172.39,714.21z"/>
		<path d="M210.44,643.02c0-23.82,5.71-42.16,17.15-55c11.43-12.84,25.75-19.26,42.98-19.26c12.37,0,23.45,3.45,33.23,10.33
			c9.78,6.89,17.11,16.94,21.96,30.15c2.03,5.77,3.21,10.84,3.52,15.21c0.31,4.38-0.47,8-2.35,10.89c-1.88,2.89-4.27,5.26-7.16,7.12
			c-2.9,1.86-7.09,3.26-12.57,4.19c-5.48,0.93-11.08,1.58-16.79,1.95c-5.72,0.38-12.8,0.56-21.26,0.56h-11.98
			c1.72,22.33,11.66,33.5,29.83,33.5c6.11,0,12.53-2.23,19.26-6.7c6.73-4.47,11.04-10.7,12.92-18.71c0.62-2.6,1.72-3.91,3.29-3.91
			c2.03,0,3.72,1.77,5.05,5.3c1.33,3.54,1.6,8.1,0.82,13.68c-1.73,11.91-7.16,22.29-16.32,31.13c-9.16,8.84-21.49,13.26-36.99,13.26
			c-8.46,0-16.4-1.44-23.84-4.33c-7.44-2.88-14.29-7.16-20.55-12.84c-6.26-5.68-11.2-13.35-14.8-23.03
			C212.24,666.85,210.44,655.68,210.44,643.02z M257.18,634.09c10.96-0.18,18.12-1.3,21.49-3.35c3.37-2.05,4.58-6.14,3.64-12.28
			c-2.82-19.17-6.81-28.76-11.98-28.76c-3.29,0-6.22,4.14-8.81,12.42C258.94,610.41,257.49,621.06,257.18,634.09z"/>
		<path d="M357.47,663.12c5.48,0,11.39,4.1,17.73,12.28c6.34,8.19,12.25,12.28,17.73,12.28c3.44,0,6.42-1.07,8.93-3.21
			c2.5-2.14,3.76-5.17,3.76-9.07c0-3.72-2-7.02-5.99-9.91c-3.99-2.88-8.81-5.54-14.44-7.96c-5.64-2.42-11.27-5.21-16.91-8.38
			c-5.64-3.16-10.45-7.77-14.44-13.82c-3.99-6.05-5.99-13.26-5.99-21.64c0-29.96,17.15-44.95,51.44-44.95
			c15.34,0,27.2,3.45,35.58,10.33c8.37,6.89,12.57,15.73,12.57,26.52c0,5.03-1.06,9.68-3.17,13.96c-2.11,4.28-5.37,6.42-9.75,6.42
			c-1.88,0-3.76-0.51-5.64-1.54c-1.88-1.02-3.84-2.65-5.87-4.89c-2.04-2.23-3.72-4.14-5.05-5.72c-1.33-1.58-3.02-3.86-5.05-6.84
			c-2.04-2.98-3.37-4.84-3.99-5.58c-3.13-3.72-7.2-5.58-12.21-5.58c-2.98,0-5.44,0.84-7.4,2.51c-1.96,1.68-2.94,4.1-2.94,7.26
			c0,5.21,2.11,9.82,6.34,13.82c4.23,4,9.31,7.45,15.27,10.33c5.95,2.89,11.9,6.1,17.85,9.63c5.95,3.54,11.04,8.33,15.27,14.38
			c4.23,6.05,6.34,13.26,6.34,21.64c0,5.58-0.71,10.61-2.11,15.08s-3.13,8.14-5.17,11.03c-2.04,2.89-4.81,5.3-8.34,7.26
			c-3.52,1.96-6.66,3.45-9.4,4.47c-2.74,1.02-6.26,1.77-10.57,2.23c-4.31,0.46-7.56,0.74-9.75,0.84c-2.19,0.09-5.25,0.14-9.16,0.14
			c-13.15,0-24.47-2.65-33.94-7.96c-9.48-5.3-14.21-13.63-14.21-24.99c0-5.96,1.29-10.84,3.88-14.66
			C351.24,665.03,354.18,663.12,357.47,663.12z"/>
		<path d="M469.5,663.12c5.48,0,11.39,4.1,17.73,12.28c6.34,8.19,12.25,12.28,17.73,12.28c3.44,0,6.42-1.07,8.92-3.21
			c2.5-2.14,3.76-5.17,3.76-9.07c0-3.72-2-7.02-5.99-9.91c-3.99-2.88-8.81-5.54-14.45-7.96c-5.64-2.42-11.27-5.21-16.91-8.38
			c-5.64-3.16-10.45-7.77-14.44-13.82c-3.99-6.05-5.99-13.26-5.99-21.64c0-29.96,17.15-44.95,51.44-44.95
			c15.34,0,27.2,3.45,35.58,10.33c8.37,6.89,12.57,15.73,12.57,26.52c0,5.03-1.06,9.68-3.17,13.96c-2.11,4.28-5.37,6.42-9.75,6.42
			c-1.88,0-3.76-0.51-5.64-1.54c-1.88-1.02-3.84-2.65-5.87-4.89c-2.04-2.23-3.72-4.14-5.05-5.72c-1.33-1.58-3.02-3.86-5.05-6.84
			c-2.04-2.98-3.37-4.84-3.99-5.58c-3.13-3.72-7.2-5.58-12.21-5.58c-2.98,0-5.44,0.84-7.4,2.51c-1.96,1.68-2.94,4.1-2.94,7.26
			c0,5.21,2.11,9.82,6.34,13.82c4.23,4,9.31,7.45,15.27,10.33c5.95,2.89,11.9,6.1,17.85,9.63c5.95,3.54,11.04,8.33,15.27,14.38
			c4.23,6.05,6.34,13.26,6.34,21.64c0,5.58-0.71,10.61-2.11,15.08s-3.13,8.14-5.17,11.03c-2.04,2.89-4.81,5.3-8.34,7.26
			c-3.52,1.96-6.66,3.45-9.39,4.47c-2.74,1.02-6.26,1.77-10.57,2.23c-4.31,0.46-7.56,0.74-9.75,0.84c-2.19,0.09-5.25,0.14-9.16,0.14
			c-13.15,0-24.47-2.65-33.94-7.96c-9.48-5.3-14.21-13.63-14.21-24.99c0-5.96,1.29-10.84,3.88-14.66
			C463.27,665.03,466.21,663.12,469.5,663.12z"/>
		<path d="M640.01,603.38c0-12.47-0.82-23.03-2.47-31.69c-1.64-8.65-3.33-15.4-5.05-20.24c-1.73-4.84-2.58-8.93-2.58-12.28
			c0-7.26,2.7-12.52,8.1-15.77c5.4-3.25,11.47-4.89,18.2-4.89h38.52c15.66,0,28.42,4.65,38.28,13.96c9.86,9.31,14.8,20.1,14.8,32.38
			c0,13.78-4.7,25.5-14.09,35.18c17.22,8.19,25.84,26.15,25.84,53.88c0,16.19-4.9,30.29-14.68,42.29
			c-9.79,12-22.51,18.01-38.17,18.01h-50.5c-6.73,0-12.8-1.67-18.2-5.03c-5.4-3.35-8.1-8.65-8.1-15.91c0-3.16,0.86-7.16,2.58-12
			c1.72-4.84,3.41-11.54,5.05-20.1c1.64-8.56,2.47-19.17,2.47-31.83V603.38z M684.16,545.59c-3.92,0-5.87,1.86-5.87,5.58
			c0,3.17,0.04,9.49,0.12,18.98c0.08,9.49,0.12,15.73,0.12,18.71c0,3.54,1.96,5.3,5.87,5.3c6.26-0.37,11.16-2.6,14.68-6.7
			c3.52-4.09,5.29-9.77,5.29-17.03c0-7.44-1.8-13.4-5.4-17.87C695.36,548.1,690.43,545.78,684.16,545.59z M678.29,671.78
			c0,4.65,1.96,6.98,5.87,6.98h8.22c6.73,0,12.37-2.98,16.91-8.93c4.54-5.95,6.81-13.68,6.81-23.17c0-9.67-2.27-17.31-6.81-22.89
			c-4.54-5.58-10.18-8.38-16.91-8.38h-7.99c-3.92,0-5.87,2.33-5.87,6.98c0,4.1-0.04,12.38-0.12,24.85
			C678.33,659.68,678.29,667.87,678.29,671.78z"/>
		<path d="M771.3,643.02c0-23.82,5.71-42.16,17.15-55c11.43-12.84,25.75-19.26,42.98-19.26c12.37,0,23.45,3.45,33.23,10.33
			c9.78,6.89,17.1,16.94,21.96,30.15c2.03,5.77,3.21,10.84,3.52,15.21c0.31,4.38-0.47,8-2.35,10.89c-1.88,2.89-4.27,5.26-7.16,7.12
			c-2.9,1.86-7.09,3.26-12.57,4.19c-5.48,0.93-11.08,1.58-16.79,1.95c-5.72,0.38-12.8,0.56-21.26,0.56h-11.98
			c1.72,22.33,11.66,33.5,29.83,33.5c6.11,0,12.53-2.23,19.26-6.7c6.73-4.47,11.04-10.7,12.92-18.71c0.62-2.6,1.72-3.91,3.29-3.91
			c2.03,0,3.72,1.77,5.05,5.3c1.33,3.54,1.6,8.1,0.82,13.68c-1.72,11.91-7.16,22.29-16.32,31.13c-9.16,8.84-21.49,13.26-36.99,13.26
			c-8.46,0-16.4-1.44-23.84-4.33c-7.44-2.88-14.29-7.16-20.55-12.84c-6.26-5.68-11.2-13.35-14.8-23.03
			C773.1,666.85,771.3,655.68,771.3,643.02z M818.04,634.09c10.96-0.18,18.12-1.3,21.49-3.35c3.37-2.05,4.58-6.14,3.64-12.28
			c-2.82-19.17-6.81-28.76-11.98-28.76c-3.29,0-6.22,4.14-8.81,12.42C819.8,610.41,818.35,621.06,818.04,634.09z"/>
		<path d="M903.77,610.36c-1.26-2.42-1.96-5.35-2.11-8.79c-0.15-3.44,0.39-6.98,1.64-10.61c1.25-3.63,3.05-7.07,5.4-10.33
			c2.35-3.25,5.6-5.95,9.75-8.1c4.15-2.14,8.88-3.39,14.21-3.77c0.62,0,1.49-0.04,2.58-0.14c1.09-0.09,1.88-0.14,2.35-0.14
			c8.61,0,14.33,1.72,17.15,5.16c2.82,3.45,4.23,8.14,4.23,14.1c0,3.91-1.41,9.03-4.23,15.35c-2.82,6.33-4.7,13.12-5.64,20.38
			c4.54-12.65,11.51-24.94,20.9-36.85c9.39-11.91,18.24-17.87,26.54-17.87c7.05,0,11.86,3.96,14.44,11.86
			c2.58,7.91,3.21,16.8,1.88,26.66c-1.33,9.87-3.88,18.24-7.63,25.13c-5.33,10.05-11.51,15.08-18.55,15.08
			c-2.98,0-5.05-1.12-6.22-3.35c-1.17-2.23-0.98-5.3,0.59-9.21c2.03-4.65,2.47-9.77,1.29-15.35c-1.17-5.58-3.64-8.38-7.4-8.38
			c-5.17,0-11,5.44-17.5,16.33c-6.5,10.89-9.2,21.82-8.1,32.8c1.09,4.84,3.41,10.61,6.93,17.31s5.28,12,5.28,15.91
			c0,5.58-2.58,10.43-7.75,14.52c-5.17,4.1-12.21,6.14-21.14,6.14c-17.54,0-26.31-6.88-26.31-20.66c0-3.53,1.64-9.91,4.93-19.12
			s4.93-19.03,4.93-29.45c0-7.26-0.43-13.07-1.29-17.45c-0.86-4.37-1.84-7.16-2.94-8.38c-1.1-1.21-2.51-2.6-4.23-4.19
			C906.03,613.39,904.7,611.85,903.77,610.36z"/>
		<path d="M1024.72,610.36c-1.26-2.42-1.96-5.35-2.11-8.79c-0.15-3.44,0.39-6.98,1.64-10.61c1.25-3.63,3.05-7.07,5.4-10.33
			c2.35-3.25,5.6-5.95,9.75-8.1c4.15-2.14,8.88-3.39,14.21-3.77c0.62,0,1.49-0.04,2.58-0.14c1.09-0.09,1.88-0.14,2.35-0.14
			c8.61,0,14.33,1.72,17.15,5.16c2.82,3.45,4.23,8.14,4.23,14.1c0,3.91-1.41,9.03-4.23,15.35c-2.82,6.33-4.7,13.12-5.64,20.38
			c4.54-12.65,11.51-24.94,20.9-36.85c9.39-11.91,18.24-17.87,26.54-17.87c7.05,0,11.86,3.96,14.44,11.86
			c2.58,7.91,3.21,16.8,1.88,26.66c-1.33,9.87-3.88,18.24-7.63,25.13c-5.33,10.05-11.51,15.08-18.55,15.08
			c-2.98,0-5.05-1.12-6.22-3.35c-1.17-2.23-0.98-5.3,0.59-9.21c2.03-4.65,2.47-9.77,1.29-15.35c-1.17-5.58-3.64-8.38-7.4-8.38
			c-5.17,0-11,5.44-17.5,16.33c-6.5,10.89-9.2,21.82-8.1,32.8c1.09,4.84,3.41,10.61,6.93,17.31s5.28,12,5.28,15.91
			c0,5.58-2.58,10.43-7.75,14.52c-5.17,4.1-12.21,6.14-21.14,6.14c-17.54,0-26.31-6.88-26.31-20.66c0-3.53,1.64-9.91,4.93-19.12
			s4.93-19.03,4.93-29.45c0-7.26-0.43-13.07-1.29-17.45c-0.86-4.37-1.84-7.16-2.94-8.38c-1.1-1.21-2.51-2.6-4.23-4.19
			C1026.99,613.39,1025.66,611.85,1024.72,610.36z"/>
		<path d="M1144.04,680.99c-0.94-10.42-0.28-20.42,2-30.01c2.27-9.58,4.5-17.54,6.69-23.87c2.19-6.33,2.9-11.26,2.11-14.8
			c-0.47-2.6-1.33-4.51-2.58-5.72c-1.25-1.21-2.47-1.95-3.64-2.23c-1.17-0.28-2.23-0.88-3.17-1.81c-0.94-0.93-1.41-2.42-1.41-4.47
			c0-7.63,2.54-14.42,7.63-20.38c5.09-5.96,11.7-8.93,19.85-8.93c10.96,0,19.1,3.77,24.43,11.31c5.32,7.54,5.95,18.29,1.88,32.24
			c-1.1,3.91-5.25,14.33-12.45,31.27c-5.79,14.15-7.28,22.8-4.46,25.96c1.25,1.3,2.97,2.05,5.17,2.23h0.7
			c7.05,0,15.11-5.44,24.19-16.33c9.08-10.89,13.15-21.82,12.21-32.8c-1.1-4.84-3.41-10.61-6.93-17.31s-5.28-12-5.28-15.91
			c0-5.58,2.54-10.42,7.63-14.52c5.09-4.09,12.17-6.14,21.26-6.14c9.71,0,17.38,1.77,23.02,5.3c5.64,3.54,8.46,8.65,8.46,15.35
			c0,3.35-0.86,6.56-2.58,9.63c-1.73,3.07-3.6,5.96-5.64,8.65c-2.04,2.7-3.92,7.59-5.64,14.66c-1.72,7.08-2.58,15.73-2.58,25.96
			c0,41.69-4.74,73.51-14.21,95.48c-9.48,21.96-23.13,32.94-40.99,32.94c-6.11,0-12.45-1.21-19.02-3.63
			c-13.15-5.03-21.06-13.4-23.72-25.13c-1.72-7.26-1.1-12.84,1.88-16.75c0.94-1.12,1.96-1.67,3.05-1.67c0.47,0,0.86,0.09,1.17,0.28
			c2.5,0.74,5.17,1.12,7.99,1.12c11.12,0,20.79-6.1,29.01-18.29c8.22-12.19,14.68-26.75,19.38-43.69
			c-6.11,12.1-13.7,22.61-22.78,31.55c-9.08,8.93-18.24,13.4-27.48,13.4c-7.36,0-13.19-2.88-17.5-8.65
			C1147.36,699.51,1144.82,691.41,1144.04,680.99z"/>
	</g>
	<g>
		<path d="M344.81,789.29c0.02-6.64-0.28-11.26-0.88-13.87c-0.6-2.61-1.68-4.85-3.25-6.75c-0.96-1.11-2.06-1.99-3.29-2.64
			c-1.24-0.65-2.99-1.18-5.27-1.58h-0.15c-3.18-0.72-4.77-2.19-4.77-4.41c0-1.3,0.36-2.33,1.07-3.07c0.71-0.75,1.7-1.12,2.96-1.12
			c0.2,0,0.81,0.07,1.82,0.2c6.32,0.86,12.82,1.3,19.49,1.31c2.73,0.01,7.18-0.23,13.35-0.7c6.17-0.47,10.93-0.71,14.26-0.7
			c11.48,0.03,20.46,3.11,26.95,9.24c6.48,6.13,9.71,14.57,9.69,25.32c-0.02,6.97-1.46,12.77-4.33,17.42
			c-2.87,4.65-7.32,8.33-13.34,11.05c7.48,0.54,13.57,4.13,18.26,10.78c4.69,6.65,7.02,14.96,7,24.92
			c-0.01,6.19-0.99,12.09-2.92,17.72c-1.94,5.63-4.6,10.39-8,14.29c-3.6,4.03-7.73,6.92-12.39,8.66
			c-4.66,1.75-11.01,2.61-19.05,2.59c-3.54-0.01-7.01-0.11-10.39-0.32c-3.39-0.2-6.75-0.5-10.09-0.9c-0.86-0.07-2.06-0.18-3.6-0.35
			c-1.54-0.17-2.64-0.25-3.3-0.25c-2.83-0.01-6.55,0.28-11.15,0.85c-1.27,0.13-2.18,0.22-2.73,0.29c-1.27,0.19-2.38,0.34-3.34,0.43
			c-0.96,0.09-1.8,0.14-2.5,0.14c-1.16,0-2.07-0.31-2.73-0.93c-0.66-0.62-0.98-1.48-0.98-2.59c0-1.3,0.26-2.34,0.77-3.12
			c0.51-0.78,1.67-1.69,3.5-2.73c0.25-0.19,0.71-0.5,1.37-0.92c0.66-0.42,1.17-0.76,1.52-1.02c2.18-1.75,3.77-4.16,4.76-7.22
			c0.99-3.06,1.5-6.93,1.51-11.62L344.81,789.29z M363.21,840.79l-0.06,26.76c-0.02,8.72,1.14,14.47,3.49,17.24
			c2.35,2.77,6.81,4.17,13.38,4.18c7.74,0.02,13.8-2.73,18.19-8.26c4.39-5.52,6.59-13.13,6.62-22.84c0.02-9.7-2.64-17.37-7.99-23.02
			c-5.35-5.64-12.65-8.48-21.91-8.5c-4.96-0.01-8.15,0.71-9.56,2.18C363.94,830,363.22,834.09,363.21,840.79z M363.28,807.4
			c-0.01,4.43,0.96,7.29,2.9,8.6c1.94,1.31,6.83,1.97,14.67,1.99c6.42,0.02,11-1.65,13.74-5c2.74-3.35,4.12-8.99,4.14-16.93
			c0.02-9.5-2.26-17.16-6.85-22.97c-4.59-5.8-10.58-8.72-17.96-8.73c-3.95-0.01-6.69,1.21-8.24,3.64c-1.55,2.44-2.33,7.3-2.35,14.59
			L363.28,807.4z"/>
		<path d="M436.38,855.91c0.03-13.02,3.56-24.03,10.58-33.03c7.03-9,15.49-13.49,25.41-13.47c10.87,0.03,19.63,4.08,26.26,12.17
			c6.63,8.09,9.93,18.74,9.9,31.96c-0.03,13.28-3.6,24.33-10.7,33.13c-7.1,8.81-16.01,13.2-26.74,13.17
			c-10.12-0.02-18.44-4.18-24.97-12.46C439.6,879.09,436.35,868.6,436.38,855.91z M452.26,844.81c-0.03,13.87,2.08,25.33,6.33,34.39
			c4.25,9.06,9.72,13.6,16.39,13.61c5.51,0.01,9.85-2.4,13.03-7.25c3.17-4.84,4.77-11.53,4.79-20.06
			c0.03-14.19-2.06-25.88-6.29-35.07c-4.23-9.19-9.55-13.79-15.98-13.81c-5.77-0.01-10.25,2.43-13.45,7.34
			C453.89,828.88,452.28,835.82,452.26,844.81z"/>
		<path d="M573.24,884.06c-4.16,5-8.14,8.67-11.94,11.01c-3.8,2.33-7.65,3.5-11.54,3.49c-7.54-0.02-13.14-3.42-16.82-10.2
			c-3.68-6.78-5.5-17.04-5.47-30.77l0.05-21.19c0.01-5.79-0.22-9.65-0.69-11.57c-0.48-1.92-1.27-3.34-2.38-4.25
			c-0.2-0.2-0.49-0.38-0.87-0.54c-0.38-0.16-1-0.34-1.86-0.54c-1.72-0.33-2.88-0.84-3.49-1.52c-0.6-0.69-0.91-1.65-0.9-2.88
			c0-1.11,0.24-1.94,0.73-2.49c0.48-0.55,1.2-0.83,2.16-0.82c0.25,0,0.67,0.03,1.25,0.1c0.58,0.07,1.05,0.1,1.4,0.1
			c5.26,0.01,10.82-0.62,16.69-1.92c1.62-0.32,2.63-0.48,3.04-0.48c0.76,0,1.31,0.28,1.67,0.83c0.35,0.55,0.53,1.42,0.52,2.59
			c0,0.39-0.05,1.4-0.16,3.03c-0.42,6.64-0.64,12.89-0.65,18.75l-0.05,19.82c-0.03,11.26,1.14,19.24,3.51,23.93
			c2.37,4.69,6.23,7.04,11.59,7.06c4.7,0.01,8.25-1.43,10.63-4.32c2.38-2.89,3.58-7.17,3.6-12.83l0.08-34.18
			c0.01-4.62-0.21-7.81-0.66-9.57c-0.45-1.76-1.23-3.13-2.34-4.11c-0.2-0.13-0.48-0.28-0.83-0.44c-0.35-0.16-0.91-0.31-1.67-0.44
			c-1.87-0.4-3.12-0.94-3.75-1.62c-0.63-0.69-0.94-1.65-0.94-2.88c0-1.11,0.24-1.94,0.73-2.49c0.48-0.55,1.23-0.83,2.24-0.82
			c0.2,0,0.62,0.03,1.25,0.1c0.63,0.07,1.12,0.1,1.48,0.1c5.26,0.01,10.82-0.62,16.69-1.91c1.62-0.32,2.66-0.48,3.11-0.48
			c0.71,0,1.21,0.26,1.51,0.79s0.45,1.4,0.45,2.64c0,0.2-0.03,0.78-0.08,1.76c-0.37,6.38-0.56,13.05-0.58,20.02l-0.09,37.79
			c-0.01,4.75,0.2,7.9,0.62,9.43c0.43,1.53,1.19,2.72,2.31,3.57c0.81,0.52,2.05,0.92,3.71,1.18l0.23,0.1
			c1.52,0.13,2.5,0.45,2.96,0.93s0.68,1.22,0.68,2.2c0,1.56-0.5,2.65-1.49,3.27c-0.99,0.62-3.48,0.99-7.48,1.11
			c-0.41,0.13-0.81,0.19-1.21,0.19c-0.41,0-1.04,0-1.9,0c-2.18,0.13-4.62,0.69-7.32,1.69c-2.71,1-4.32,1.5-4.82,1.5
			c-1.11,0-1.96-0.3-2.54-0.88c-0.58-0.59-0.87-1.43-0.87-2.54l0-2.15L573.24,884.06z"/>
		<path d="M618.02,872.54l0.11-46.19c0-1.5-0.2-2.6-0.6-3.32c-0.4-0.72-1.03-1.08-1.89-1.08l-3.26-0.01c-1.21,0-2.04-0.2-2.46-0.59
			c-0.43-0.39-0.64-1.01-0.64-1.86c0-0.85,1.64-3.2,4.91-7.07c3.27-3.87,6.25-7.75,8.94-11.65c1.67-2.34,3.48-5.27,5.41-8.78
			c1.98-3.45,3.45-5.17,4.41-5.17c0.61,0,1.05,0.28,1.33,0.83c0.28,0.55,0.42,1.38,0.41,2.49l-0.01,3.42L634.63,809
			c0,1.63,0.18,2.67,0.56,3.13c0.38,0.46,1.17,0.69,2.39,0.69l8.04,0.02c1.57,0,3.1-0.66,4.59-1.99c1.49-1.33,2.32-2,2.47-2
			c0.4,0,0.73,0.2,0.98,0.59c0.25,0.39,0.38,0.91,0.38,1.56c-0.01,3.58-0.7,6.31-2.07,8.2s-3.32,2.82-5.85,2.82l-8.72-0.02
			c-1.06,0-1.8,0.24-2.2,0.73c-0.41,0.49-0.61,1.45-0.61,2.88l-0.1,45.21c-0.02,6.9,0.53,11.49,1.64,13.77
			c1.11,2.28,3.08,3.43,5.91,3.43c2.23,0.01,4.48-0.59,6.76-1.79c2.28-1.2,3.62-1.8,4.03-1.8c0.66,0,1.2,0.23,1.63,0.69
			c0.43,0.46,0.64,1.04,0.64,1.76c-0.01,2.6-2.26,5.45-6.77,8.53c-4.51,3.08-9.34,4.62-14.5,4.61c-5.92-0.01-10.04-1.9-12.35-5.64
			C619.14,890.62,618,883.35,618.02,872.54z"/>
		<path d="M671.5,874.03l0.08-35.16c0.01-4.75-0.2-7.88-0.62-9.38c-0.43-1.5-1.2-2.7-2.31-3.62c-0.81-0.52-2.05-0.92-3.71-1.18
			h-0.15c-1.57-0.2-2.58-0.54-3.03-1.03s-0.68-1.22-0.68-2.2c0-1.17,0.26-2.03,0.76-2.59c0.51-0.55,1.85-1.09,4.03-1.6
			c1.62-0.32,3.06-0.69,4.33-1.11c1.26-0.42,2.53-0.92,3.8-1.5c2.99-1.29,5.84-2.82,8.55-4.57c2.71-1.75,4.11-2.63,4.22-2.63
			c0.66,0.07,1.12,0.44,1.4,1.13c0.28,0.68,0.41,1.81,0.41,3.37c0,0.13-0.03,0.62-0.08,1.46c-0.16,4.36-0.25,8.72-0.26,13.09
			l-0.11,46c-0.01,4.95,0.23,8.42,0.73,10.4c0.5,1.99,1.38,3.67,2.64,5.04c0.91,0.91,2.3,1.76,4.17,2.55
			c0.25,0.13,0.43,0.2,0.53,0.2c0.05,0.07,0.15,0.13,0.3,0.2c1.97,0.85,2.95,2.12,2.95,3.82c0,1.11-0.31,1.95-0.92,2.54
			c-0.61,0.58-1.47,0.88-2.58,0.87c-0.56,0-2.36-0.27-5.42-0.79c-3.06-0.53-5.85-0.79-8.38-0.8c-5.06-0.01-9.94,0.43-14.65,1.33
			c-0.71,0.13-1.17,0.19-1.37,0.19c-0.81,0-1.48-0.3-2.01-0.88c-0.53-0.59-0.79-1.37-0.79-2.35c0-0.72,0.16-1.33,0.46-1.85
			c0.3-0.52,0.99-1.14,2.05-1.85c2.13-1.49,3.6-3.3,4.41-5.41c0.81-2.11,1.23-4.86,1.23-8.25L671.5,874.03z M669.22,777.64
			c0-2.08,1.54-5.43,4.61-10.05c3.07-4.62,5.11-6.92,6.12-6.92c1.16,0,3.14,2.22,5.94,6.65c2.8,4.43,4.19,7.69,4.19,9.78
			c-0.01,2.15-1.45,5.25-4.35,9.32c-2.89,4.06-4.95,6.09-6.16,6.09c-1.52,0-3.62-1.99-6.32-5.97
			C670.56,782.56,669.21,779.59,669.22,777.64z"/>
		<path d="M757.87,886.44c-4.51,4.68-8.66,8.05-12.43,10.13c-3.77,2.07-7.68,3.11-11.73,3.1c-7.18-0.02-13.07-3.63-17.65-10.83
			c-4.59-7.2-6.87-16.57-6.84-28.09c0.03-14.65,3.34-26.67,9.91-36.06c6.57-9.39,14.86-14.08,24.88-14.05
			c7.18,0.02,13.8,2.08,19.86,6.2c1.11,0.72,1.79,1.08,2.05,1.08c0.86,0,2.03-1.74,3.5-5.22c1.47-3.48,2.79-5.22,3.96-5.22
			c0.61,0,1.05,0.31,1.33,0.93c0.28,0.62,0.41,1.58,0.41,2.88c0,0.26-0.06,2.33-0.17,6.2c-0.11,3.87-0.17,7.7-0.18,11.47
			l-0.21,92.19c0,2.21,0.29,4.07,0.9,5.57c0.6,1.5,1.79,2.97,3.56,4.4c0.91,0.72,1.53,1.37,1.85,1.96c0.33,0.59,0.49,1.21,0.49,1.86
			c0,0.91-0.22,1.67-0.65,2.29c-0.43,0.62-1,0.93-1.71,0.92c-0.1,0-0.45-0.07-1.06-0.2c-4.2-0.66-9.13-1-14.79-1.01
			c-2.93-0.01-5.94,0.18-9.03,0.57c-3.09,0.38-4.73,0.58-4.93,0.57c-1.32,0-2.31-0.33-2.99-0.98c-0.68-0.65-1.02-1.6-1.02-2.83
			c0-1.89,1.22-3.16,3.65-3.8h0.08c0.71-0.13,1.38-0.31,2.01-0.53c0.63-0.23,1.23-0.5,1.79-0.83c1.72-1.1,3-2.65,3.84-4.63
			c0.84-1.98,1.26-4.51,1.27-7.57L757.87,886.44z M757.89,879.11l0.09-41.21c0.01-3.06-0.15-5.44-0.48-7.13
			c-0.33-1.69-0.84-3.13-1.54-4.3c-1.61-2.54-3.83-4.65-6.66-6.31c-2.83-1.67-5.69-2.5-8.57-2.51c-5.77-0.01-10.24,2.56-13.41,7.73
			c-3.17,5.17-4.77,12.5-4.79,22.01c-0.03,10.68,2.13,19.72,6.46,27.12c4.33,7.4,9.43,11.11,15.3,11.12c1.97,0,3.98-0.48,6.03-1.45
			C752.38,883.2,754.9,881.51,757.89,879.11z"/>
		<path d="M844.89,884.69c-4.16,5-8.14,8.67-11.94,11.01c-3.8,2.33-7.65,3.5-11.54,3.49c-7.54-0.02-13.14-3.42-16.82-10.2
			c-3.68-6.78-5.5-17.04-5.47-30.78l0.05-21.19c0.01-5.79-0.22-9.65-0.69-11.57c-0.48-1.92-1.27-3.34-2.38-4.25
			c-0.2-0.2-0.49-0.38-0.87-0.54c-0.38-0.16-1-0.34-1.86-0.54c-1.72-0.33-2.88-0.84-3.49-1.52c-0.6-0.68-0.91-1.65-0.9-2.88
			c0-1.11,0.24-1.94,0.73-2.49c0.48-0.55,1.2-0.83,2.16-0.83c0.25,0,0.67,0.03,1.25,0.1c0.58,0.07,1.05,0.1,1.4,0.1
			c5.26,0.01,10.82-0.62,16.69-1.91c1.62-0.32,2.63-0.48,3.04-0.48c0.76,0,1.31,0.28,1.67,0.83c0.35,0.55,0.53,1.42,0.52,2.59
			c0,0.39-0.05,1.4-0.16,3.03c-0.42,6.64-0.64,12.89-0.65,18.75l-0.05,19.82c-0.03,11.26,1.14,19.24,3.51,23.93
			s6.23,7.05,11.59,7.06c4.7,0.01,8.25-1.43,10.63-4.32c2.38-2.89,3.58-7.17,3.6-12.83l0.08-34.18c0.01-4.62-0.21-7.81-0.66-9.57
			c-0.45-1.76-1.23-3.13-2.34-4.11c-0.2-0.13-0.48-0.28-0.83-0.44c-0.35-0.16-0.91-0.31-1.67-0.44c-1.87-0.39-3.12-0.93-3.75-1.62
			c-0.63-0.68-0.94-1.65-0.94-2.88c0-1.11,0.24-1.94,0.73-2.49s1.23-0.83,2.24-0.83c0.2,0,0.62,0.03,1.25,0.1
			c0.63,0.07,1.12,0.1,1.48,0.1c5.26,0.01,10.82-0.62,16.69-1.91c1.62-0.32,2.66-0.48,3.11-0.48c0.71,0,1.21,0.26,1.51,0.79
			c0.3,0.52,0.45,1.4,0.45,2.64c0,0.2-0.03,0.78-0.08,1.76c-0.37,6.38-0.56,13.05-0.58,20.02l-0.09,37.79
			c-0.01,4.75,0.2,7.89,0.62,9.42c0.43,1.53,1.19,2.72,2.31,3.57c0.81,0.52,2.05,0.92,3.71,1.18l0.23,0.1
			c1.52,0.13,2.5,0.45,2.96,0.93s0.68,1.22,0.68,2.2c0,1.56-0.5,2.65-1.49,3.27c-0.99,0.62-3.48,0.99-7.48,1.11
			c-0.41,0.13-0.81,0.19-1.21,0.19c-0.41,0-1.04,0-1.9,0c-2.18,0.13-4.62,0.69-7.32,1.69c-2.71,1-4.32,1.5-4.82,1.5
			c-1.11,0-1.96-0.3-2.54-0.88c-0.58-0.59-0.87-1.43-0.87-2.54l0-2.15L844.89,884.69z"/>
		<path d="M903.68,849.37c-2.73-0.01-4.43,0.32-5.08,0.96c-0.66,0.65-0.99,2.15-1,4.49c-0.02,8.46,2.26,15.99,6.85,22.58
			c4.59,6.59,10.12,9.89,16.59,9.9c4.6,0.01,9.07-1.72,13.4-5.19c4.33-3.47,6.75-5.21,7.26-5.21c0.56,0,0.97,0.21,1.25,0.64
			c0.28,0.42,0.42,1.16,0.41,2.2c-0.01,3.84-3.42,8.29-10.24,13.36c-6.81,5.06-14.17,7.58-22.06,7.57
			c-8.45-0.02-15.46-3.93-21.03-11.72c-5.57-7.79-8.34-17.71-8.31-29.76c0.03-13.93,3.04-25.38,9.03-34.35
			c5.99-8.97,13.58-13.45,22.79-13.42c8.24,0.02,15.24,3.4,20.99,10.16c5.75,6.75,8.62,14.33,8.6,22.72c0,2.28-0.3,3.71-0.88,4.29
			c-0.58,0.58-2.29,0.87-5.12,0.87L903.68,849.37z M903.09,843.61l10.85,0.03c5.06,0.01,8.39-0.32,10.02-1
			c1.62-0.68,2.43-2.45,2.44-5.32c0.01-5.73-1.39-10.5-4.21-14.32c-2.82-3.82-6.36-5.73-10.61-5.74c-4.05-0.01-7.43,2.1-10.14,6.32
			c-2.72,4.23-4.08,9.43-4.1,15.62c0,1.76,0.38,2.93,1.17,3.52C899.28,843.31,900.81,843.6,903.09,843.61z"/>
	</g>
</g>
</svg>
